{"glyphs":{"0":{"ha":817,"x_min":0,"x_max":0,"o":"m 326 776 b 0 450 149 776 0 628 l 0 326 b 326 0 0 149 149 0 b 653 326 506 0 653 150 l 653 450 b 326 776 653 626 506 776 z m 38 450 b 326 739 38 608 168 739 b 531 654 403 739 476 710 l 532 654 b 615 450 586 600 615 526 l 615 326 b 532 122 615 250 586 176 l 531 122 b 326 38 476 67 403 38 b 38 326 168 38 38 168 z "},"1":{"ha":271,"x_min":0,"x_max":0,"o":"m 18 776 b -1 776 11 776 4 776 l -19 776 b -72 758 -37 776 -72 782 b -54 739 -72 747 -64 739 l 51 739 l 51 18 b 69 0 51 8 60 0 b 88 18 79 0 88 8 l 88 758 b 35 776 88 782 54 776 z "},"2":{"ha":813,"x_min":0,"x_max":0,"o":"m 36 0 l 669 0 b 688 18 679 0 688 8 b 669 38 688 29 679 38 l 38 38 l 38 186 b 343 368 38 329 203 349 b 696 592 458 397 696 385 b 640 722 696 642 675 688 l 636 728 b 510 778 601 760 557 778 l 201 778 b 75 728 154 778 108 760 l 69 722 b 15 593 35 689 15 642 l 15 592 b 35 574 15 582 24 574 b 53 592 44 574 53 582 b 96 697 53 632 68 668 l 110 708 b 201 740 135 729 168 740 l 510 740 b 601 708 543 740 575 729 l 614 697 b 658 592 642 668 658 632 b 339 406 658 444 475 424 b 0 186 215 386 0 378 l 0 18 b 18 0 0 8 8 0 z "},"3":{"ha":783,"x_min":0,"x_max":0,"o":"m 18 500 b 0 482 8 500 0 492 b 18 463 0 471 8 463 l 382 463 l 383 463 b 593 250 496 463 593 365 b 381 38 593 132 494 38 l 18 38 b 0 18 8 36 0 29 b 18 0 0 8 8 0 l 381 0 b 631 250 517 0 631 114 b 489 475 631 343 578 431 l 467 486 l 485 504 b 490 508 488 506 489 507 l 492 508 b 538 619 521 539 538 578 b 492 731 538 661 521 701 l 488 735 b 381 776 458 761 421 776 l 18 776 b 0 758 8 776 0 768 b 18 739 0 747 8 739 l 381 739 b 451 715 406 739 431 731 l 453 717 l 465 704 b 500 619 488 682 500 651 b 382 500 500 553 446 500 l 381 500 z "},"4":{"ha":694,"x_min":0,"x_max":0,"o":"m 15 313 l 11 315 b -10 351 -1 324 -10 336 b -4 372 -10 360 -7 367 l 215 753 b 218 761 217 756 218 758 b 201 778 218 769 211 778 b 186 769 196 778 190 775 l -33 390 b -43 351 -39 378 -43 365 b -6 286 -43 326 -29 300 l -3 285 b 33 276 8 279 21 276 l 489 276 l 489 18 b 507 0 489 8 497 0 b 526 18 518 0 526 8 l 526 679 b 507 699 526 689 518 699 b 489 679 497 699 489 690 l 489 310 l 33 310 b 17 313 28 310 22 311 z "},"5":{"ha":783,"x_min":0,"x_max":0,"o":"m 38 500 l 38 739 l 476 739 b 494 758 486 740 494 747 b 476 776 494 768 486 776 l 18 776 b 0 758 8 776 0 768 l 0 482 b 18 463 0 471 8 463 l 393 463 b 606 250 507 463 606 367 b 393 38 606 132 507 38 l 18 38 b 0 18 8 38 0 29 b 18 0 0 8 8 0 l 393 0 b 643 250 529 0 643 114 b 396 500 643 386 531 497 z "},"6":{"ha":763,"x_min":0,"x_max":0,"o":"m 246 500 b 74 426 181 500 119 471 l 33 388 l 43 440 b 142 633 57 514 89 582 l 143 635 b 378 739 206 697 289 735 l 482 739 b 500 758 492 739 500 747 b 482 776 500 768 492 776 l 396 776 b 117 661 290 776 190 735 l 115 660 b 0 381 42 586 0 486 l 0 250 b 250 0 0 114 114 0 l 390 0 b 640 250 526 0 640 113 b 390 500 640 388 526 500 z m 268 463 l 390 463 b 604 250 506 463 604 368 b 390 38 604 132 506 38 l 250 38 b 38 250 133 38 38 133 b 250 463 38 367 133 463 z "},"7":{"ha":594,"x_min":0,"x_max":0,"o":"m 469 742 l 474 739 b 494 703 485 733 494 715 b 488 682 494 696 492 688 l 110 25 b 107 15 107 22 107 19 b 124 0 107 7 115 0 b 138 8 129 0 135 3 l 229 167 l 517 665 b 528 703 524 676 528 689 b 490 768 528 728 513 754 l 486 769 b 451 778 476 775 464 778 l -69 778 b -86 761 -79 778 -86 771 b -69 744 -86 751 -79 744 l 451 744 b 468 742 457 744 463 743 z "},"8":{"ha":838,"x_min":0,"x_max":0,"o":"m 560 735 b 453 776 531 761 492 776 l 250 776 b 143 735 210 776 172 761 l 139 731 b 93 619 110 701 93 661 b 144 504 94 575 111 535 l 164 486 l 140 475 b 0 250 53 433 0 340 b 250 0 0 114 114 0 l 453 0 b 703 250 588 0 703 114 b 561 475 701 342 651 432 l 538 486 l 557 504 b 608 619 593 522 608 585 b 563 731 608 661 593 701 z m 179 715 b 250 739 199 731 224 739 l 453 739 b 524 715 478 739 503 731 l 525 717 l 536 704 b 572 619 560 682 572 651 b 454 500 572 556 518 500 l 250 500 l 249 500 b 131 619 183 500 131 554 b 165 704 131 651 143 682 l 178 717 z m 247 463 l 454 463 b 665 250 568 463 665 367 b 453 38 665 132 565 38 l 250 38 b 38 250 133 38 38 133 b 247 463 38 365 133 463 z "},"9":{"ha":806,"x_min":0,"x_max":0,"o":"m 394 276 b 568 350 460 276 521 303 l 607 389 l 599 336 b 499 143 586 263 550 194 l 499 142 b 263 38 435 79 351 42 l 160 38 b 140 18 149 38 140 29 b 160 0 140 8 149 0 l 244 0 b 525 115 350 0 450 42 l 525 117 b 640 396 599 190 640 290 l 640 526 b 390 776 640 664 526 776 l 250 776 b 0 526 114 776 0 663 b 250 276 0 390 114 276 z m 374 314 l 250 314 b 38 526 133 314 38 410 b 250 739 38 643 133 739 l 390 739 b 604 526 506 739 604 644 b 390 314 604 408 506 314 z "}," ":{"ha":308,"x_min":0,"x_max":0,"o":""},"e":{"ha":731,"x_min":0,"x_max":0,"o":"m 31 215 l 554 215 b 588 250 572 215 588 231 l 588 347 b 347 588 588 478 478 588 l 240 588 b 0 347 110 588 0 478 l 0 251 b 240 0 0 118 100 0 l 499 0 b 517 19 508 0 517 8 b 499 38 517 29 508 38 l 240 38 b 56 158 163 38 88 85 z m 550 253 l 38 253 l 38 347 b 240 550 38 458 132 550 l 347 550 b 550 347 457 550 550 457 z "},"f":{"ha":451,"x_min":0,"x_max":0,"o":"m 0 469 l 0 18 b 18 0 0 8 8 0 b 38 18 29 0 38 8 l 38 213 l 276 213 b 296 231 288 213 296 221 b 276 250 296 242 288 250 l 38 250 l 38 539 b 238 739 38 650 128 739 l 290 739 b 308 758 300 739 308 747 b 290 776 308 768 300 776 l 238 776 b 0 539 107 776 0 669 z "},"g":{"ha":724,"x_min":0,"x_max":0,"o":"m 296 117 b 507 186 382 117 447 126 b 575 351 550 229 575 289 b 340 588 575 481 468 588 l 236 588 b 0 351 108 588 0 481 b 204 118 0 236 89 132 l 226 115 b 217 83 221 107 217 97 b 288 13 217 43 249 13 b 433 -133 368 13 433 -53 b 288 -279 433 -214 368 -279 b 142 -133 207 -279 142 -214 b 124 -115 142 -124 133 -115 b 104 -133 113 -115 104 -124 b 288 -317 104 -235 186 -317 b 471 -133 389 -317 471 -235 b 288 49 471 -33 389 49 b 254 83 269 49 254 64 b 296 117 254 108 275 117 z m 340 550 b 539 351 446 550 539 461 b 340 154 539 242 446 154 l 236 154 b 38 351 129 154 38 243 b 236 550 38 461 129 550 z "},"h":{"ha":681,"x_min":0,"x_max":0,"o":"m 524 356 b 286 590 521 483 414 590 l 238 590 b 69 521 174 589 113 567 l 38 488 l 38 758 b 18 776 38 768 29 776 b 0 758 8 776 0 768 l 0 18 b 18 0 0 8 8 0 b 38 18 29 0 38 8 l 38 357 b 238 553 40 464 129 553 l 286 553 b 486 353 394 553 486 461 l 486 18 b 504 0 486 8 494 0 b 524 18 515 0 524 8 z "},"i":{"ha":225,"x_min":0,"x_max":0,"o":"m 6 18 b 25 0 6 8 14 0 b 43 18 35 0 43 8 l 43 561 b 25 581 43 572 35 581 b 6 561 14 581 6 572 z m 25 744 b 0 719 11 744 0 733 b 25 694 0 706 11 694 b 50 719 39 694 50 706 b 25 744 50 733 39 744 z "},"j":{"ha":283,"x_min":0,"x_max":0,"o":"m 64 35 l 64 -35 b -133 -232 64 -143 -26 -232 l -186 -232 b -204 -251 -196 -232 -204 -240 b -186 -269 -204 -261 -196 -269 l -133 -269 b 101 -35 -8 -269 101 -164 l 101 564 b 82 582 101 574 93 582 b 64 564 72 582 64 574 z m 82 744 b 58 719 69 744 58 733 b 82 696 58 706 69 696 b 107 719 96 696 107 706 b 82 744 107 733 96 744 z "},"a":{"ha":699,"x_min":0,"x_max":0,"o":"m 86 588 l 68 588 b 50 568 58 588 50 579 b 68 550 50 558 58 550 l 314 550 b 511 396 406 550 489 485 l 517 374 l 160 374 b -28 188 56 374 -28 290 b 160 0 -28 83 56 0 l 314 0 b 556 240 443 0 556 107 l 556 347 b 314 588 556 481 443 588 z m 243 38 l 160 38 b 10 188 76 38 10 104 b 160 336 10 269 76 336 l 517 336 l 517 240 b 314 38 517 132 426 38 z "},"d":{"ha":744,"x_min":0,"x_max":0,"o":"m 579 768 b 561 788 579 779 571 788 b 542 768 550 788 542 779 l 542 488 l 510 521 b 342 590 467 565 404 590 l 238 590 b 0 353 107 590 0 482 l 0 238 b 238 0 0 107 107 0 l 342 0 b 579 238 472 0 579 107 z m 542 318 l 542 238 b 342 38 542 128 451 38 l 238 38 b 38 238 128 38 38 128 l 38 353 b 238 553 38 463 128 553 l 342 553 b 542 357 447 553 542 464 z "},"k":{"ha":615,"x_min":0,"x_max":0,"o":"m 0 18 b 18 0 0 8 8 0 b 38 18 29 0 38 8 l 38 271 l 239 271 b 439 71 350 271 439 179 l 439 18 b 458 0 439 8 447 0 b 476 18 468 0 476 8 l 476 71 b 354 279 476 156 431 236 l 329 293 l 353 308 b 463 508 422 353 463 428 l 463 571 b 444 590 463 582 454 590 b 425 571 433 590 425 582 l 425 508 b 225 308 425 399 335 308 l 38 308 l 38 758 b 18 776 38 768 29 776 b 0 758 8 776 0 768 z "},"l":{"ha":222,"x_min":0,"x_max":0,"o":"m 0 18 b 18 0 0 8 8 0 b 38 18 29 0 38 8 l 38 758 b 18 776 38 768 29 776 b 0 758 8 776 0 768 z "},"m":{"ha":1146,"x_min":0,"x_max":0,"o":"m 1024 349 l 1024 350 b 783 588 1021 481 913 588 l 733 588 b 526 471 649 588 575 544 l 511 444 l 496 471 b 290 588 453 544 372 588 l 240 588 b 0 350 110 588 3 479 l 0 19 b 19 0 0 8 8 0 b 38 19 29 0 38 8 l 38 351 b 240 550 40 460 133 550 l 290 550 b 493 347 399 550 493 458 l 493 19 b 511 0 493 8 501 0 b 531 19 522 0 531 8 l 531 351 b 733 550 533 457 622 550 l 783 550 b 985 347 890 550 985 460 l 985 19 b 1004 0 985 8 994 0 b 1024 19 1015 0 1024 8 z "},"n":{"ha":738,"x_min":0,"x_max":0,"o":"m 588 349 l 588 350 b 347 588 588 478 476 588 l 240 588 b 0 350 110 588 3 479 l 0 19 b 19 0 0 8 8 0 b 38 19 29 0 38 8 l 38 351 b 240 550 40 458 132 550 l 347 550 b 550 347 456 550 550 458 l 550 19 b 568 0 550 8 558 0 b 588 19 579 0 588 8 z "},"o":{"ha":731,"x_min":0,"x_max":0,"o":"m 240 588 b 0 347 110 588 0 478 l 0 240 b 240 0 0 110 110 0 l 347 0 b 588 240 478 0 588 110 l 588 347 b 347 588 588 478 478 588 z m 347 550 b 550 347 456 550 550 458 l 550 240 b 347 38 550 131 457 38 l 240 38 b 38 240 131 38 38 132 l 38 347 b 240 550 38 460 133 550 z "},"p":{"ha":731,"x_min":0,"x_max":0,"o":"m 0 -262 b 18 -281 0 -272 8 -281 b 38 -262 29 -281 38 -272 l 38 101 l 69 69 b 236 0 114 25 174 0 l 340 0 b 576 236 468 0 576 108 l 576 351 b 340 588 576 479 468 588 l 236 588 b 0 351 108 588 0 479 z m 38 271 l 38 351 b 236 550 38 460 128 550 l 340 550 b 539 351 449 550 539 460 l 539 236 b 340 38 539 128 449 38 l 236 38 b 38 232 132 38 38 125 z "},"q":{"ha":735,"x_min":0,"x_max":0,"o":"m 576 351 b 340 588 576 479 468 588 l 236 588 b 0 351 108 588 0 479 l 0 236 b 236 0 0 108 108 0 l 340 0 b 507 69 403 0 463 25 l 539 101 l 539 -262 b 558 -281 539 -272 547 -281 b 576 -262 568 -281 576 -272 z m 539 232 b 340 38 539 125 444 38 l 236 38 b 38 236 128 38 38 128 l 38 351 b 236 550 38 460 128 550 l 340 550 b 539 351 449 550 539 460 l 539 271 z "},"r":{"ha":631,"x_min":0,"x_max":0,"o":"m 0 349 l 0 19 b 19 0 0 8 8 0 b 38 19 29 0 38 8 l 38 351 b 240 550 40 460 133 550 l 315 550 b 458 490 368 550 419 528 b 472 485 463 486 467 485 b 490 504 482 485 490 493 b 485 517 490 508 489 514 b 315 588 440 563 379 588 l 240 588 b 0 350 110 588 3 479 z "},"s":{"ha":674,"x_min":0,"x_max":0,"o":"m 515 443 b 517 457 515 449 517 453 b 479 542 517 486 500 519 l 475 546 b 375 588 449 572 413 588 l 149 588 b 6 444 72 588 6 525 b 363 260 6 275 242 283 b 493 143 419 249 493 224 b 389 39 493 86 446 39 l 142 39 b 39 129 93 39 39 79 b 39 144 39 133 39 138 b 19 164 39 156 31 164 b 0 128 1 164 0 142 b 142 0 0 60 69 0 l 389 0 b 532 143 469 0 532 67 b 44 444 532 394 44 233 b 149 549 44 501 92 549 l 375 549 b 449 518 403 549 429 538 l 454 513 b 478 456 467 497 478 474 b 478 443 478 453 478 449 b 496 425 478 433 486 425 b 515 443 507 425 515 433 z "},"t":{"ha":463,"x_min":0,"x_max":0,"o":"m 38 307 l 38 551 l 276 551 b 296 571 288 551 296 560 b 276 589 296 581 288 589 l 38 589 l 38 758 b 18 776 38 768 29 776 b 0 758 8 776 0 768 l 0 238 b 238 0 0 107 107 0 l 290 0 b 308 18 300 0 308 8 b 290 38 308 29 300 38 l 238 38 b 38 238 128 38 38 128 z "},"u":{"ha":651,"x_min":0,"x_max":0,"o":"m 0 239 l 0 238 b 240 0 3 108 110 0 l 290 0 b 531 238 421 0 528 108 l 531 568 b 511 588 531 579 522 588 b 493 568 501 588 493 579 l 493 240 b 290 38 493 131 400 38 l 240 38 b 38 238 133 38 40 126 l 38 568 b 19 588 38 579 29 588 b 0 568 8 588 0 579 z "},"v":{"ha":708,"x_min":0,"x_max":0,"o":"m 165 69 b 269 0 183 28 222 0 b 372 69 314 0 354 25 l 579 564 b 581 571 581 565 581 568 b 563 588 581 581 572 588 b 549 578 557 588 550 583 l 342 82 b 269 35 328 53 301 35 b 197 82 235 35 210 53 l -10 578 b -25 588 -12 583 -19 588 b -43 571 -36 588 -43 579 b -42 564 -43 568 -43 565 z "},"w":{"ha":1157,"x_min":0,"x_max":0,"o":"m 0 239 l 0 238 b 240 0 3 108 110 0 l 290 0 b 496 117 372 0 453 43 l 511 143 l 526 117 b 733 0 575 43 649 0 l 783 0 b 1024 238 913 0 1021 107 l 1024 568 b 1004 588 1024 579 1015 588 b 985 568 994 588 985 579 l 985 240 b 783 38 985 129 892 38 l 733 38 b 531 236 622 38 533 131 l 531 568 b 511 588 531 579 522 588 b 493 568 501 588 493 579 l 493 240 b 290 38 493 131 400 38 l 240 38 b 38 238 133 38 40 126 l 38 568 b 19 588 38 579 29 588 b 0 568 8 588 0 579 z "},"x":{"ha":742,"x_min":0,"x_max":0,"o":"m 617 72 b 492 283 617 158 567 242 l 467 297 l 490 313 b 601 515 560 357 601 433 l 601 568 b 583 588 601 579 593 588 b 564 568 572 588 564 579 l 564 515 b 361 313 564 407 474 313 l 256 313 b 53 515 144 313 53 404 l 53 568 b 33 588 53 579 43 588 b 14 568 22 588 14 579 l 14 515 b 125 313 14 432 57 360 l 150 297 l 124 283 b 0 72 46 242 0 156 l 0 19 b 19 0 0 8 8 0 b 38 19 29 0 38 8 l 38 72 b 240 275 38 183 132 275 l 375 275 b 578 72 486 275 578 182 l 578 19 b 597 0 578 8 586 0 b 617 19 608 0 617 8 z "},"y":{"ha":644,"x_min":0,"x_max":0,"o":"m 472 569 l 472 572 l 472 575 l 471 576 l 469 578 l 468 581 l 467 582 l 465 583 l 464 585 l 461 586 l 460 588 l 457 588 l 454 588 l 451 588 l 449 588 l 446 586 l 443 585 l 440 582 l 439 579 l 438 578 l 436 575 l 436 572 l 435 571 l 435 351 b 236 153 435 243 344 153 b 38 351 128 153 38 243 l 38 569 b 18 588 38 579 29 588 b 0 569 8 588 0 579 l 0 351 b 236 115 0 224 108 115 b 403 185 299 115 358 140 l 435 217 l 435 -33 b 236 -232 435 -142 344 -232 l 183 -232 b 165 -251 174 -232 165 -240 b 183 -269 165 -261 174 -269 l 236 -269 b 472 -33 364 -269 472 -161 z "},"z":{"ha":674,"x_min":0,"x_max":0,"o":"m 503 481 l 496 464 b 468 432 490 450 481 439 l 57 190 b 7 106 26 172 7 140 b 108 3 7 49 51 3 l 522 3 b 539 19 532 3 539 10 b 522 36 539 29 532 36 l 108 36 b 40 103 74 36 40 64 b 74 161 40 125 53 149 l 485 403 b 528 451 504 414 519 431 l 529 456 b 535 489 533 467 535 478 b 435 590 535 549 486 590 l 36 590 b 19 574 26 590 19 583 b 36 557 19 564 26 557 l 435 557 b 501 492 467 557 501 528 b 500 481 501 488 500 485 z "},"A":{"ha":910,"x_min":0,"x_max":0,"o":"m 471 756 b 400 776 450 769 425 776 b 333 758 376 776 354 771 l 331 756 b 283 699 308 742 293 722 l 1 24 b 0 17 0 21 0 19 b 17 0 0 7 8 0 b 32 10 24 0 29 3 l 117 213 l 685 213 l 769 10 b 783 0 771 3 776 0 b 800 18 793 0 800 8 b 800 24 800 19 800 22 l 518 699 b 474 754 508 721 493 740 l 472 754 z m 365 736 b 400 743 376 740 389 743 b 453 728 419 743 438 738 l 454 726 b 486 686 469 717 481 701 l 671 246 l 131 246 l 314 686 b 349 728 321 703 333 717 l 365 739 z "},"B":{"ha":806,"x_min":0,"x_max":0,"o":"m 536 735 b 429 776 507 761 468 776 l 157 776 b 50 735 117 776 79 761 l 46 731 b 0 619 17 701 0 661 l 0 157 b 46 46 0 115 17 75 l 50 42 b 157 0 79 15 117 0 l 429 0 b 679 250 565 0 679 114 b 538 475 679 343 626 431 l 515 486 l 533 504 b 586 619 569 522 586 585 b 539 731 586 661 569 701 z m 85 60 l 72 72 b 38 157 50 94 38 125 l 38 463 l 431 463 b 642 250 546 463 642 365 b 429 38 642 132 542 38 l 157 38 b 85 61 131 38 106 46 z m 85 715 b 157 739 106 731 131 739 l 429 739 b 500 715 454 739 479 731 l 501 717 l 514 704 b 549 619 536 682 549 651 b 431 500 549 553 494 500 l 38 500 l 38 619 b 72 704 38 651 50 682 l 85 717 z "},"C":{"ha":753,"x_min":0,"x_max":0,"o":"m 326 776 b 0 450 149 776 0 628 l 0 326 b 326 0 0 149 147 0 l 600 0 b 619 18 611 0 619 8 b 600 38 619 29 611 38 l 326 38 b 38 326 168 38 38 168 l 38 450 b 326 739 38 608 168 739 l 600 739 b 619 758 611 739 619 747 b 600 776 619 768 611 776 z "},"D":{"ha":796,"x_min":0,"x_max":0,"o":"m 50 42 b 157 0 79 15 117 0 l 350 0 b 676 326 529 0 676 149 l 676 450 b 350 776 676 626 529 776 l 157 776 b 50 735 117 776 79 761 l 46 731 b 0 619 17 701 0 661 l 0 157 b 46 46 0 115 17 75 z m 85 60 l 72 72 b 38 157 50 94 38 125 l 38 619 b 72 704 38 651 50 682 l 85 717 l 85 715 b 157 739 106 731 131 739 l 350 739 b 640 450 507 739 640 610 l 640 326 b 350 38 640 167 507 38 l 157 38 b 85 61 131 38 106 46 z "},"E":{"ha":753,"x_min":0,"x_max":0,"o":"m 326 776 b 0 450 147 776 0 626 l 0 326 b 326 0 0 149 149 0 l 600 0 b 619 18 611 0 619 8 b 600 38 619 29 611 38 l 326 38 b 38 326 168 38 38 168 l 38 369 l 551 369 b 569 389 561 369 569 378 b 551 407 569 399 561 407 l 38 407 l 38 450 b 326 739 38 608 168 739 l 600 739 b 619 758 611 739 619 747 b 600 776 619 768 611 776 z "},"F":{"ha":644,"x_min":0,"x_max":0,"o":"m 0 36 l 0 18 b 18 0 0 8 8 0 b 38 18 29 0 38 8 l 38 211 l 464 211 b 482 229 474 211 482 219 b 464 249 482 240 474 249 l 38 249 l 38 450 b 326 739 38 608 168 739 l 464 739 b 482 758 474 739 482 747 b 464 776 482 768 474 776 l 326 776 b 0 454 151 776 3 632 z "},"G":{"ha":868,"x_min":0,"x_max":0,"o":"m 344 500 l 328 500 b 308 482 317 500 308 492 b 328 463 308 471 317 463 l 506 463 b 718 250 619 463 718 367 b 506 38 718 132 619 38 l 326 38 b 38 326 168 38 38 168 l 38 450 b 326 739 38 608 168 739 l 669 739 b 689 758 681 739 689 747 b 669 776 689 768 681 776 l 326 776 b 0 450 149 776 0 628 l 0 326 b 326 0 0 149 147 0 l 506 0 b 756 250 642 0 756 114 b 506 500 756 386 642 500 z "},"H":{"ha":817,"x_min":0,"x_max":0,"o":"m 38 249 l 38 758 b 18 776 38 768 29 776 b 0 758 8 776 0 768 l 0 18 b 18 0 0 8 8 0 b 38 18 29 0 38 8 l 38 211 l 618 211 l 618 18 b 636 0 618 8 626 0 b 654 18 646 0 654 8 l 654 758 b 636 776 654 768 646 776 b 618 758 626 776 618 768 l 618 249 z "},"I":{"ha":229,"x_min":0,"x_max":0,"o":"m 38 758 b 18 776 38 768 29 776 b 0 758 8 776 0 768 l 0 18 b 18 0 0 8 8 0 b 38 18 29 0 38 8 z "},"J":{"ha":488,"x_min":0,"x_max":0,"o":"m 271 304 l 271 238 b 71 38 271 128 181 38 l 18 38 b 0 19 8 38 0 29 b 18 0 0 8 8 0 l 71 0 b 308 238 201 0 308 107 l 308 758 b 289 776 308 768 300 776 b 271 758 279 776 271 768 z "},"K":{"ha":738,"x_min":0,"x_max":0,"o":"m 269 407 l 38 407 l 38 758 b 18 776 38 768 29 776 b 0 758 8 776 0 768 l 0 18 b 18 0 0 8 8 0 b 38 18 29 0 38 8 l 38 369 l 261 369 b 550 81 418 369 550 238 l 550 18 b 569 0 550 8 558 0 b 588 18 579 0 588 8 l 588 81 b 403 375 586 201 518 319 l 371 390 l 401 406 b 579 696 511 460 579 576 l 579 758 b 561 776 579 768 571 776 b 542 758 550 776 542 768 l 542 696 b 269 407 542 546 422 415 z "},"L":{"ha":579,"x_min":0,"x_max":0,"o":"m 449 38 l 238 38 b 38 238 128 38 38 128 l 38 758 b 18 776 38 768 29 776 b 0 758 8 776 0 768 l 0 238 b 238 0 0 107 107 0 l 467 0 b 485 18 476 0 485 8 b 467 38 485 29 476 38 z "},"M":{"ha":1114,"x_min":0,"x_max":0,"o":"m 131 718 b 156 742 133 731 142 738 b 185 724 167 742 179 738 l 442 38 b 499 -1 450 14 471 -1 b 554 38 524 -1 546 14 l 811 724 b 840 742 817 738 829 742 b 865 718 854 738 863 731 l 963 13 b 979 -1 964 4 971 -1 b 996 14 988 -1 996 6 b 996 17 996 15 996 15 l 897 722 b 836 774 894 754 865 774 b 781 735 808 774 789 757 l 524 49 b 499 32 519 38 510 32 b 472 49 486 32 476 38 l 215 735 b 160 774 207 757 188 774 b 99 722 131 774 101 754 l 0 17 b 0 14 0 15 0 15 b 17 -1 0 6 8 -1 b 33 13 25 -1 32 4 z "},"N":{"ha":910,"x_min":0,"x_max":0,"o":"m 33 713 b 65 743 33 729 47 743 b 88 731 75 743 82 738 l 635 25 b 685 0 644 10 665 0 b 749 64 719 0 749 29 l 749 757 b 732 774 749 767 742 774 b 715 757 722 774 715 767 l 715 64 b 683 33 715 47 701 33 b 661 46 674 33 665 39 l 114 751 b 64 776 104 767 83 776 b 0 713 32 776 0 751 l 0 19 b 17 3 0 10 7 3 b 33 19 26 3 33 10 z "},"O":{"ha":954,"x_min":0,"x_max":0,"o":"m 326 776 b 0 450 149 776 0 628 l 0 326 b 326 0 0 149 147 0 l 479 0 b 806 326 654 0 806 147 l 806 450 b 479 776 806 628 657 776 z m 38 450 b 326 739 38 608 168 739 l 479 739 b 768 450 636 739 768 608 l 768 326 b 479 38 768 168 636 38 l 326 38 b 38 326 168 38 38 168 z "},"P":{"ha":781,"x_min":0,"x_max":0,"o":"m 432 276 b 679 526 567 279 679 390 b 429 776 679 663 565 776 l 157 776 b 50 735 117 776 79 761 l 46 731 b 0 619 17 701 0 661 l 0 18 b 18 0 0 8 8 0 b 38 18 29 0 38 8 l 38 276 z m 411 314 l 38 314 l 38 619 b 72 704 38 651 50 682 l 85 717 l 85 715 b 157 739 106 731 131 739 l 429 739 b 642 526 542 739 642 644 b 429 314 642 408 542 314 z "},"Q":{"ha":964,"x_min":0,"x_max":0,"o":"m 326 776 b 0 450 149 776 0 628 l 0 326 b 326 0 0 149 147 0 l 479 0 b 679 68 551 0 621 24 l 690 78 l 765 4 b 778 -1 768 0 774 -1 b 796 17 788 -1 796 8 b 790 31 796 22 794 26 l 718 104 l 728 117 b 806 326 778 175 806 249 l 806 450 b 479 776 806 628 657 776 z m 768 326 b 704 144 768 260 746 196 l 692 129 l 419 403 b 406 408 415 406 411 408 b 388 389 394 408 388 399 b 393 376 388 383 389 379 b 615 153 469 303 540 226 l 665 104 l 649 92 b 479 38 599 56 539 38 l 326 38 b 38 326 168 38 38 168 l 38 450 b 326 739 38 608 168 739 l 479 739 b 768 450 636 739 768 608 z "},"R":{"ha":819,"x_min":0,"x_max":0,"o":"m 46 731 b 0 619 17 701 0 661 l 0 18 b 18 0 0 8 8 0 b 38 18 29 0 38 8 l 38 276 l 369 276 l 640 6 b 653 0 643 1 649 0 b 672 18 664 0 672 8 b 667 32 672 24 669 28 l 425 274 l 460 278 b 679 526 585 293 679 403 b 429 776 679 663 565 776 l 157 776 b 50 735 117 776 79 761 z m 411 314 l 38 314 l 38 619 b 72 704 38 651 50 682 l 85 717 l 85 715 b 157 739 106 731 131 739 l 429 739 b 642 526 542 739 642 644 b 429 314 642 408 542 314 z "},"S":{"ha":863,"x_min":0,"x_max":0,"o":"m 697 593 b 643 724 697 642 678 689 l 639 728 b 513 778 604 760 560 778 l 194 778 b 68 728 147 778 103 760 l 64 724 b 10 592 29 688 10 642 b 346 371 10 438 157 394 b 667 186 454 344 667 363 b 519 38 667 104 600 38 l 185 38 b 81 81 146 38 108 53 l 76 86 b 38 186 51 114 38 149 b 18 204 38 196 29 204 b 0 186 8 204 0 196 l 0 179 b 50 60 1 135 19 92 l 54 54 b 185 0 89 19 136 0 l 519 0 b 704 186 619 0 704 83 b 47 592 704 517 47 290 b 90 697 47 632 63 669 l 103 708 b 194 740 129 729 161 740 l 513 740 b 603 708 546 740 578 729 l 617 697 b 660 592 644 669 660 632 b 679 574 660 582 668 574 b 697 592 689 574 697 582 z "},"T":{"ha":694,"x_min":0,"x_max":0,"o":"m 357 739 l 658 739 b 676 758 668 739 676 747 b 658 776 676 768 668 776 l 18 776 b 0 758 8 776 0 768 b 18 739 0 747 8 739 l 319 739 l 319 18 b 339 0 319 8 328 0 b 357 18 349 0 357 8 z "},"U":{"ha":854,"x_min":0,"x_max":0,"o":"m 682 740 l 682 326 b 393 38 682 168 550 38 l 326 38 b 38 326 168 38 38 168 l 38 758 b 18 776 38 768 29 776 b 0 758 8 776 0 768 l 0 326 b 326 0 0 149 147 0 l 393 0 b 719 326 571 0 719 149 l 719 758 b 701 776 719 768 711 776 b 682 758 690 776 682 768 z "},"V":{"ha":942,"x_min":0,"x_max":0,"o":"m 333 18 b 400 0 354 6 376 0 b 471 21 425 0 450 7 l 474 22 b 518 78 493 36 508 56 l 800 753 b 800 758 800 754 800 757 b 783 776 800 768 793 776 b 769 767 776 776 771 772 l 486 90 b 454 50 481 75 469 60 l 453 49 b 400 33 438 39 419 33 b 365 40 389 33 376 36 l 365 38 l 349 49 b 314 90 333 58 321 74 l 32 767 b 17 776 29 772 24 776 b 0 760 8 776 0 769 b 1 753 0 757 0 754 l 283 78 b 331 21 293 56 308 35 z "},"W":{"ha":1117,"x_min":0,"x_max":0,"o":"m 33 760 b 14 775 32 769 24 775 b 0 758 6 774 0 767 b 0 756 0 757 0 756 l 99 50 b 160 -3 101 22 126 -3 b 215 38 186 -3 207 15 l 472 724 b 499 742 476 733 488 742 b 524 724 508 742 519 733 l 781 38 b 836 -1 789 14 811 -1 b 897 50 868 -1 894 24 l 996 756 b 996 758 996 756 996 757 b 982 775 996 767 989 774 b 963 760 972 775 964 769 l 865 56 b 836 31 863 39 847 31 b 811 49 825 31 815 38 l 554 735 b 499 775 546 757 524 775 b 442 735 471 775 450 757 l 185 49 b 160 31 181 38 169 31 b 131 56 146 31 133 40 z "},"X":{"ha":878,"x_min":0,"x_max":0,"o":"m 310 369 l 401 369 b 690 81 558 369 690 238 l 690 18 b 710 0 690 8 699 0 b 728 18 719 0 728 8 l 728 81 b 543 375 728 204 657 315 l 511 390 l 542 406 b 719 696 651 460 719 576 l 719 758 b 701 776 719 768 711 776 b 682 758 690 776 682 768 l 682 696 b 393 407 682 539 551 407 l 335 407 b 46 696 176 407 46 539 l 46 758 b 26 776 46 768 38 776 b 8 758 17 776 8 768 l 8 696 b 186 406 8 576 76 460 l 217 390 l 185 375 b 0 81 71 319 0 201 l 0 18 b 18 0 0 8 8 0 b 38 18 29 0 38 8 l 38 81 b 310 369 38 229 157 360 z "},"Y":{"ha":796,"x_min":0,"x_max":0,"o":"m 669 758 b 651 776 669 768 661 776 b 632 758 640 776 632 768 l 632 547 b 343 257 632 390 503 257 l 326 257 b 38 547 167 257 38 390 l 38 758 b 18 776 38 768 29 776 b 0 758 8 776 0 768 l 0 547 b 300 221 0 379 133 236 l 317 219 l 317 18 b 335 0 317 8 325 0 b 353 18 344 0 353 8 l 353 219 l 369 221 b 574 315 447 228 519 261 l 574 317 b 669 547 635 378 669 460 z "},"Z":{"ha":868,"x_min":0,"x_max":0,"o":"m 575 743 b 669 646 626 743 669 701 b 624 565 671 611 651 582 l 72 240 b 8 129 33 217 8 178 b 138 0 8 58 65 0 l 700 0 b 717 17 710 0 717 7 b 700 33 717 26 710 33 l 138 33 b 42 132 85 33 42 76 b 89 211 42 165 63 194 l 640 536 b 704 647 681 560 704 601 b 575 776 704 718 644 776 l 43 776 b 26 760 33 776 26 769 b 43 743 26 750 33 743 z "},"$":{"ha":856,"x_min":0,"x_max":0,"o":"m 693 592 b 639 721 692 640 672 686 l 633 725 b 508 775 600 757 556 775 l 368 775 l 368 835 b 350 854 368 846 360 854 b 331 835 339 854 331 846 l 331 775 l 193 775 b 68 725 147 775 101 757 l 64 721 b 10 590 29 686 10 639 b 317 374 10 447 139 399 l 331 372 l 331 40 l 185 40 b 81 83 144 40 108 56 l 75 89 b 38 188 51 115 38 150 b 18 206 38 197 29 206 b 0 188 8 206 0 197 l 0 181 b 50 61 1 136 19 94 l 54 57 b 185 3 89 22 135 3 l 331 3 l 331 -57 b 350 -75 331 -67 339 -75 b 368 -57 360 -75 368 -67 l 368 3 l 515 3 b 700 188 615 3 700 86 b 383 403 700 346 539 381 l 368 404 l 368 738 l 508 738 b 599 706 542 738 574 726 l 600 707 l 613 694 b 656 590 640 667 656 629 b 674 572 656 581 664 572 b 693 590 685 572 693 581 z m 103 706 b 193 738 128 726 160 738 l 331 738 l 331 410 l 311 413 b 46 590 201 428 46 451 b 90 694 46 629 63 667 l 101 707 z m 368 40 l 368 367 l 388 364 b 663 188 499 347 663 333 b 515 40 663 107 596 40 z "},"%":{"ha":871,"x_min":0,"x_max":0,"o":"m 74 7 b 679 746 275 253 478 500 b 683 758 682 750 683 754 b 665 776 683 768 676 776 b 546 640 644 776 574 674 b 44 31 378 438 213 233 b 40 18 42 26 40 22 b 58 0 40 8 49 0 b 74 7 64 0 69 1 z m 126 776 b 0 650 57 776 0 718 b 126 524 0 582 57 524 b 251 650 194 524 251 582 b 126 776 251 718 194 776 z m 192 715 b 218 650 208 699 218 675 b 126 558 218 600 176 558 b 33 650 72 558 33 603 b 126 743 33 700 76 743 b 192 715 150 743 174 733 z m 597 251 b 471 125 529 251 471 193 b 597 -1 471 57 529 -1 b 724 125 665 -1 724 57 b 597 251 724 193 665 251 z m 663 190 b 690 125 681 172 690 149 b 597 32 690 75 647 32 b 506 125 550 32 506 71 b 597 217 506 175 547 217 b 663 190 622 217 646 207 z "},"+":{"ha":774,"x_min":0,"x_max":0,"o":"m 331 293 l 604 293 b 624 311 615 293 624 301 b 604 331 624 322 615 331 l 331 331 l 331 604 b 311 624 331 615 322 624 b 293 604 301 624 293 615 l 293 331 l 19 331 b 0 311 8 331 0 322 b 19 293 0 301 8 293 l 293 293 l 293 19 b 311 0 293 8 301 0 b 331 19 322 0 331 8 z "},"€":{"ha":817,"x_min":0,"x_max":0,"o":"m 21 439 l 92 439 l 92 338 l 4 338 b -14 319 -6 338 -14 329 b 4 300 -14 308 -6 300 l 93 300 l 94 285 b 418 0 117 122 257 0 l 608 0 b 626 18 618 0 626 8 b 608 38 626 29 618 38 l 418 38 b 133 281 281 38 153 140 l 129 300 l 308 300 b 326 319 318 300 326 308 b 308 338 326 329 318 338 l 129 338 l 129 439 l 308 439 b 326 457 318 439 326 447 b 308 476 326 468 318 476 l 129 476 l 133 496 b 418 739 153 636 281 739 l 608 739 b 626 758 618 739 626 747 b 608 776 626 768 618 776 l 418 776 b 94 492 257 776 117 654 l 93 476 l 4 476 b -14 457 -6 476 -14 468 b 4 439 -14 447 -6 439 z "},"‰":{"ha":1096,"x_min":0,"x_max":0,"o":"m 74 7 b 681 746 275 253 478 500 b 683 757 683 749 683 753 b 665 776 683 767 676 776 b 546 640 644 776 574 674 b 44 31 378 436 211 232 b 40 18 42 26 40 22 b 58 0 40 8 49 0 b 74 7 64 0 69 1 z m 832 251 b 707 125 763 251 707 193 b 832 -1 707 57 763 -1 b 958 125 900 -1 958 57 b 832 251 958 193 900 251 z m 897 190 b 925 125 915 172 925 150 b 832 32 925 75 882 32 b 740 125 785 32 740 71 b 832 217 740 176 782 217 b 897 190 857 217 881 207 z m 126 776 b 0 650 57 776 0 718 b 126 525 0 581 58 525 b 251 650 196 525 251 581 b 126 776 251 718 194 776 z m 192 715 b 218 650 208 699 218 675 b 126 558 218 600 176 558 b 33 650 72 558 33 603 b 126 743 33 700 76 743 b 192 715 150 743 174 733 z m 504 251 b 378 125 436 251 378 193 b 504 -1 378 57 436 -1 b 631 125 572 -1 631 57 b 504 251 631 193 572 251 z m 569 190 b 597 125 588 172 597 150 b 504 32 597 75 554 32 b 413 125 456 32 413 72 b 504 217 413 175 453 217 b 569 190 529 217 553 207 z "},"¢":{"ha":608,"x_min":0,"x_max":0,"o":"m 442 42 l 308 42 l 308 551 l 458 551 b 478 571 469 551 478 560 b 458 589 478 581 469 589 l 308 589 l 308 665 b 290 685 308 676 300 685 b 271 665 281 685 271 676 l 271 589 l 238 589 b 0 351 108 589 0 482 l 0 242 b 238 4 0 111 108 4 l 271 4 l 271 -57 b 290 -75 271 -67 281 -75 b 308 -57 300 -75 308 -67 l 308 4 l 458 4 b 478 22 469 4 478 13 b 458 42 478 32 469 42 z m 271 42 l 238 42 b 38 242 128 42 38 131 l 38 351 b 238 551 38 461 128 551 l 271 551 z "},"£":{"ha":708,"x_min":0,"x_max":0,"o":"m 253 739 l 271 739 b 289 758 281 739 289 747 b 271 776 289 768 281 776 l 263 776 b 86 592 164 772 86 692 l 86 407 l -11 407 b -29 388 -21 407 -29 399 b -11 369 -29 378 -21 369 l 86 369 l 86 0 l 553 0 b 571 18 564 0 571 8 b 553 38 571 29 564 38 l 124 38 l 124 369 l 293 369 b 313 388 304 369 313 378 b 293 407 313 399 304 407 l 124 407 l 124 592 b 253 738 124 667 181 729 z "},"¥":{"ha":838,"x_min":0,"x_max":0,"o":"m 200 240 l 317 240 l 317 139 l 182 139 b 164 121 172 139 164 131 b 182 103 164 110 172 103 l 200 101 l 317 101 l 317 18 b 335 0 317 8 325 0 b 353 18 344 0 353 8 l 353 101 l 469 101 l 488 103 b 506 121 497 103 506 110 b 488 139 506 131 497 139 l 353 139 l 353 240 l 488 240 b 506 258 497 240 506 249 b 488 278 506 269 497 278 l 353 278 l 353 358 l 369 360 b 669 685 540 372 669 522 l 669 758 b 651 776 669 768 661 776 b 632 758 640 776 632 768 l 632 685 b 343 396 632 528 501 396 l 326 396 b 38 685 168 396 38 528 l 38 758 b 18 776 38 768 29 776 b 0 758 8 776 0 768 l 0 685 b 300 360 0 522 129 372 l 317 358 l 317 278 l 182 278 b 164 258 172 278 164 269 b 182 240 164 249 172 240 z "},"±":{"ha":792,"x_min":0,"x_max":0,"o":"m 18 0 b 597 0 211 0 404 0 b 617 18 608 0 617 8 b 597 38 617 29 608 38 b 18 38 404 38 211 38 b 0 18 8 38 0 29 b 18 0 0 8 8 0 z m 326 450 l 597 450 b 617 468 608 450 617 458 b 597 488 617 478 608 488 l 326 488 l 326 758 b 308 776 326 768 318 776 b 289 758 297 776 289 768 l 289 488 l 18 488 b 0 468 8 488 0 478 b 18 450 0 458 8 450 l 289 450 l 289 179 b 308 160 289 168 297 160 b 326 179 318 160 326 168 z "},"=":{"ha":763,"x_min":0,"x_max":0,"o":"m 19 196 b 446 196 161 196 303 196 b 464 215 456 196 464 204 b 446 235 464 226 456 235 b 19 235 303 235 161 235 b 0 215 8 235 0 226 b 19 196 0 204 8 196 z m 19 389 b 446 389 161 389 303 389 b 464 408 456 389 464 397 b 446 428 464 418 456 428 b 19 428 303 428 161 428 b 0 408 8 428 0 418 b 19 389 0 397 8 389 z "},"-":{"ha":693,"x_min":0,"x_max":0,"o":"m 19 293 b 604 293 214 293 410 293 b 624 311 615 293 624 301 b 604 331 624 322 615 331 b 19 331 410 331 214 331 b 0 311 8 331 0 322 b 19 293 0 301 8 293 z "},"°":{"ha":440,"x_min":0,"x_max":0,"o":"m 138 776 b 0 639 60 776 0 711 b 138 501 0 567 58 501 b 275 639 211 501 275 564 b 138 776 275 714 211 776 z m 208 710 b 238 639 228 692 238 665 b 138 539 238 582 192 539 b 36 639 82 539 36 585 b 138 739 36 693 82 739 b 208 710 164 739 189 729 z "},"²":{"ha":540,"x_min":0,"x_max":0,"o":"m 368 340 b 388 360 379 340 388 349 b 368 378 388 369 379 378 l 38 378 l 38 449 b 333 572 38 561 250 528 b 392 668 367 589 392 628 b 283 776 392 728 340 776 l 117 776 b 8 668 56 776 8 725 b 26 649 8 658 17 649 b 117 739 58 649 38 739 l 283 739 b 354 668 321 739 354 706 b 58 544 354 558 140 586 b 0 449 24 526 0 490 l 0 360 b 18 340 0 349 8 340 z "},"³":{"ha":504,"x_min":0,"x_max":0,"o":"m 289 629 b 307 683 300 644 307 664 b 214 776 307 735 261 776 l 18 776 b 0 758 8 776 0 768 b 18 739 0 747 8 739 l 214 739 b 269 683 246 739 269 713 b 214 628 269 653 244 628 l 18 628 b 0 608 8 628 0 619 b 18 590 0 599 8 590 l 215 590 b 319 485 274 590 319 540 b 214 378 319 424 268 378 l 18 378 b 0 360 8 378 0 369 b 18 340 0 349 8 340 l 214 340 b 357 485 288 340 357 403 b 293 603 357 528 333 582 l 278 614 z "},"¹":{"ha":282,"x_min":0,"x_max":0,"o":"m 67 739 l 67 360 b 85 342 67 350 75 342 b 103 360 94 342 103 350 l 103 758 b 74 776 103 775 86 776 l 57 776 b 46 776 53 776 50 776 l 29 776 b 0 758 15 776 0 775 b 18 739 0 749 8 739 z "},"º":{"ha":556,"x_min":0,"x_max":0,"o":"m 178 774 b 0 596 79 774 0 692 l 0 521 b 178 343 0 425 82 343 l 253 343 b 431 521 349 343 431 422 l 431 596 b 253 774 431 694 351 774 z m 253 732 b 389 596 326 732 389 669 l 389 521 b 253 386 389 449 328 386 l 178 386 b 43 521 103 386 43 446 l 43 596 b 178 732 43 669 103 732 z "},"¼":{"ha":849,"x_min":0,"x_max":0,"o":"m 33 7 b 639 746 235 253 438 500 b 643 758 642 750 643 754 b 625 776 643 768 636 776 b 506 640 604 776 533 674 b 4 29 338 438 169 236 b 0 18 1 26 0 22 b 18 0 0 8 8 0 b 33 7 24 0 29 1 z m 640 143 l 640 18 b 658 0 640 7 649 0 b 676 18 668 0 676 7 l 676 360 b 658 378 676 371 668 378 b 640 360 649 378 640 371 l 640 176 l 413 176 l 539 394 b 540 403 540 397 540 400 b 524 419 540 410 535 419 b 510 411 518 419 513 417 l 396 214 b 389 190 392 207 389 199 b 436 143 389 165 411 143 z m 79 740 l 79 375 b 96 357 79 365 86 357 b 114 375 107 357 114 365 l 114 758 b 86 776 114 774 103 776 l 69 776 b 60 776 67 776 63 776 l 43 776 b 15 758 28 776 15 775 b 32 740 15 749 22 740 z "},"½":{"ha":911,"x_min":0,"x_max":0,"o":"m 33 7 b 639 746 235 253 438 500 b 643 758 642 750 643 754 b 625 776 643 768 636 776 b 506 640 604 776 533 674 b 4 29 338 438 169 236 b 0 18 1 26 0 22 b 18 0 0 8 8 0 b 33 7 24 0 29 1 z m 735 0 b 753 18 744 0 753 8 b 735 36 753 28 744 36 l 465 36 l 465 104 b 619 200 465 181 576 193 b 746 315 676 208 746 239 b 642 419 746 372 699 419 l 542 419 b 438 315 485 419 438 372 b 454 297 438 306 444 297 b 542 383 485 297 467 383 l 642 383 b 710 315 679 383 710 353 b 558 224 710 239 610 235 b 429 104 497 210 429 179 l 429 18 b 447 0 429 8 438 0 z m 79 740 l 79 375 b 96 357 79 365 86 357 b 114 375 107 357 114 365 l 114 758 b 86 776 114 774 103 776 l 69 776 b 60 776 67 776 63 776 l 43 776 b 15 758 28 776 15 775 b 32 740 15 749 22 740 z "},"¾":{"ha":878,"x_min":0,"x_max":0,"o":"m 71 7 b 678 746 272 253 475 500 b 681 757 681 749 681 753 b 663 776 681 767 674 776 b 543 640 643 776 571 675 b 42 29 376 436 207 235 b 38 18 39 26 38 22 b 56 0 38 8 46 0 b 71 7 61 0 67 1 z m 228 633 b 246 686 239 649 246 668 b 156 776 246 735 204 776 l 18 776 b 0 758 8 776 0 768 b 18 740 0 749 8 740 l 156 740 b 210 686 185 740 210 717 b 157 633 210 656 185 633 l 18 633 b 0 615 8 633 0 625 b 18 597 0 606 8 597 l 157 597 b 258 494 211 597 258 549 b 156 392 258 440 211 392 l 18 392 b 0 375 8 392 0 385 b 18 357 0 364 8 357 l 156 357 b 294 494 233 357 294 422 b 233 610 294 542 269 581 l 218 619 z m 678 143 l 678 18 b 696 0 678 7 686 0 b 714 18 706 0 714 7 l 714 360 b 696 378 714 371 706 378 b 678 360 686 378 678 371 l 678 176 l 451 176 l 576 394 b 578 403 578 397 578 400 b 563 419 578 410 572 419 b 547 411 556 419 550 417 l 433 214 b 426 190 429 207 426 199 b 474 143 426 165 450 143 z "},"×":{"ha":556,"x_min":0,"x_max":0,"o":"m 208 283 l 383 110 b 396 103 386 106 392 103 b 417 124 407 103 417 114 b 411 136 417 128 414 132 l 236 311 l 411 486 b 417 500 414 490 417 494 b 396 519 417 510 407 519 b 383 514 392 519 386 518 l 208 339 l 33 514 b 19 519 29 518 24 519 b 0 500 10 519 0 511 b 6 486 0 494 1 490 l 181 311 l 6 136 b 0 122 1 132 0 128 b 18 103 0 113 8 103 b 33 110 24 103 29 106 z "},"÷":{"ha":796,"x_min":0,"x_max":0,"o":"m 19 293 b 604 293 214 293 410 293 b 624 311 615 293 624 301 b 604 331 624 322 615 331 b 19 331 410 331 214 331 b 0 311 8 331 0 322 b 19 293 0 301 8 293 z m 311 75 b 274 38 292 75 274 58 b 311 0 274 17 292 0 b 349 38 332 0 349 17 b 311 75 349 58 332 75 z m 311 624 b 274 586 292 624 274 607 b 311 549 274 565 292 549 b 349 586 332 549 349 565 b 311 624 349 607 332 624 z "},"ª":{"ha":560,"x_min":0,"x_max":0,"o":"m 71 774 l 67 772 b 54 753 60 768 54 761 b 76 732 54 740 64 732 l 250 732 b 371 657 299 731 349 701 l 388 622 l 140 622 b 0 483 63 622 0 560 b 140 343 0 406 63 343 l 250 343 b 428 521 346 343 428 425 l 428 596 b 250 774 428 693 347 774 z m 207 386 l 140 386 b 43 483 86 386 43 429 b 140 581 43 536 86 581 l 385 581 l 385 521 b 250 386 385 450 325 386 z "},"&":{"ha":867,"x_min":0,"x_max":0,"o":"m 179 715 b 250 739 199 731 224 739 l 443 739 b 463 758 454 739 463 747 b 443 776 463 768 454 776 l 250 776 b 143 735 210 776 172 761 l 139 731 b 93 619 110 701 93 661 b 144 504 94 575 111 535 l 164 486 l 140 475 b 0 250 53 433 0 340 b 250 0 0 114 114 0 l 492 0 b 599 42 532 0 569 15 l 603 46 b 649 157 632 75 649 115 l 649 463 l 724 463 b 742 482 733 463 742 471 b 724 500 742 492 733 500 l 249 500 b 131 619 183 500 131 554 b 165 704 131 651 143 682 l 178 717 z m 564 61 b 492 38 543 46 518 38 l 250 38 b 38 250 133 38 38 133 b 247 463 38 365 133 463 l 611 463 l 611 157 b 576 72 611 125 599 94 l 564 60 z "},"@":{"ha":964,"x_min":0,"x_max":0,"o":"m 344 776 l 326 776 b 0 450 149 776 0 628 l 0 326 b 326 0 0 149 149 0 l 754 0 b 772 18 764 0 772 8 b 754 38 772 29 764 38 l 326 38 b 38 326 168 38 38 168 l 38 450 b 326 739 38 608 168 739 l 569 739 b 763 588 660 739 739 676 l 768 567 l 415 567 b 232 382 314 567 232 483 b 415 197 232 281 314 197 l 569 197 b 806 435 699 197 806 306 l 806 539 b 569 776 806 669 697 776 z m 499 235 l 415 235 b 269 382 335 235 269 300 b 415 529 269 463 335 529 l 768 529 l 768 435 b 569 235 768 326 678 235 z "},"¤":{"ha":565,"x_min":0,"x_max":0,"o":"m 222 501 b 115 467 185 501 147 489 l 103 458 l 33 529 b 18 535 29 532 24 535 b 0 514 7 535 0 525 b 6 501 0 510 1 504 l 75 432 l 67 419 b 33 311 44 388 33 350 b 67 204 33 274 44 236 l 75 192 l 6 122 b 0 108 1 118 0 113 b 18 89 0 99 7 89 b 33 94 24 89 29 90 l 103 164 l 115 156 b 222 122 147 133 185 122 b 331 156 261 122 299 133 l 342 164 l 413 94 b 425 89 415 90 421 89 b 444 108 438 89 444 99 b 439 122 444 113 443 118 l 369 192 l 378 204 b 411 311 400 236 411 274 b 378 419 411 350 400 388 l 369 432 l 439 501 b 444 514 443 504 444 510 b 425 535 444 524 438 535 b 413 529 421 535 415 532 l 342 458 l 331 467 b 222 501 299 489 261 501 z m 332 421 b 376 311 361 392 376 353 b 222 157 376 228 307 157 b 68 311 138 157 68 229 b 222 465 68 396 138 465 b 332 421 264 465 303 450 z "},"þ":{"ha":775,"x_min":0,"x_max":0,"o":"m 0 -182 b 19 -200 0 -192 8 -200 b 38 -182 29 -200 38 -192 l 38 104 l 71 71 b 240 0 115 25 175 0 l 347 0 b 588 240 478 0 588 110 l 588 347 b 347 588 588 478 478 588 l 240 588 b 71 517 175 588 115 561 l 38 483 l 38 769 b 19 788 38 779 29 788 b 0 769 8 788 0 779 z m 38 238 l 38 351 b 240 550 40 458 131 550 l 347 550 b 550 347 457 550 550 457 l 550 240 b 347 38 550 131 457 38 l 240 38 b 38 238 132 38 40 128 z "},"ø":{"ha":731,"x_min":0,"x_max":0,"o":"m 240 588 b 0 347 110 588 0 478 l 0 240 b 49 96 0 189 17 138 l 57 85 l 25 51 b 19 38 21 47 19 43 b 38 19 19 28 28 19 b 51 25 43 19 47 21 l 85 57 l 96 49 b 240 0 138 17 189 0 l 347 0 b 588 240 478 0 588 110 l 588 347 b 539 492 588 399 571 450 l 531 503 l 563 536 b 568 549 565 539 568 544 b 549 568 568 560 560 568 b 536 563 544 568 539 565 l 503 531 l 492 539 b 347 588 450 571 399 588 z m 476 504 l 83 111 l 72 129 b 38 240 50 163 38 200 l 38 347 b 240 550 38 460 133 550 l 347 550 b 458 515 388 550 426 538 z m 111 83 l 504 476 l 515 458 b 550 347 536 425 550 389 l 550 240 b 347 38 550 131 457 38 l 240 38 b 129 72 199 36 163 51 z "},"æ":{"ha":1058,"x_min":0,"x_max":0,"o":"m 114 588 l 96 588 b 78 568 86 588 78 579 b 96 550 78 558 86 550 l 240 550 b 436 396 332 550 414 485 l 442 374 l 188 374 b 0 188 83 374 0 290 b 188 0 0 83 83 0 l 240 0 b 447 117 325 0 399 43 l 461 143 l 476 117 b 683 0 525 43 599 0 l 835 0 b 854 19 844 0 854 8 b 835 38 854 29 844 38 l 683 38 b 499 158 603 36 532 86 l 472 215 l 890 215 b 924 250 908 215 924 231 l 924 347 b 683 588 924 478 814 588 b 476 471 599 588 525 544 l 461 444 l 447 471 b 240 588 399 544 325 588 z m 169 39 b 38 188 96 47 38 111 b 188 336 38 269 104 336 l 443 336 l 443 240 b 240 38 443 131 350 38 l 169 38 z m 886 253 l 481 253 l 481 347 b 683 550 481 456 572 550 b 886 347 796 550 886 456 z "},"œ":{"ha":1054,"x_min":0,"x_max":0,"o":"m 240 588 b 0 347 110 588 0 478 l 0 240 b 240 0 0 110 110 0 b 447 117 322 0 404 43 l 463 143 l 478 117 b 683 0 521 43 601 0 l 835 0 b 854 19 846 0 854 8 b 835 38 854 29 846 38 l 683 38 b 499 158 606 38 536 82 l 474 215 l 890 215 b 925 250 910 215 925 231 l 925 347 b 683 588 925 479 814 588 b 478 471 601 588 521 544 l 463 444 l 447 471 b 240 588 404 544 322 588 z m 482 253 l 482 347 b 683 550 482 458 574 550 b 886 347 794 550 886 458 l 886 253 z m 240 550 b 443 347 353 550 443 456 l 443 240 b 240 38 443 132 353 38 b 38 240 131 38 38 132 l 38 347 b 240 550 38 460 133 550 z "},"µ":{"ha":693,"x_min":0,"x_max":0,"o":"m 0 18 b 18 0 0 8 8 0 b 38 18 29 0 38 8 l 38 103 l 69 69 b 238 0 113 25 174 0 l 286 0 b 453 69 349 0 408 25 l 486 103 l 486 -179 b 504 -197 486 -189 494 -197 b 524 -179 515 -197 524 -189 l 524 561 b 504 579 524 571 515 579 b 486 561 494 579 486 571 l 486 238 b 286 38 486 129 394 38 l 238 38 b 38 233 129 38 40 125 l 38 561 b 18 579 38 571 29 579 b 0 561 8 579 0 571 z "},"μ":{"ha":693,"x_min":0,"x_max":0,"o":"m 0 18 b 18 0 0 8 8 0 b 38 18 29 0 38 8 l 38 103 l 69 69 b 238 0 113 25 174 0 l 286 0 b 453 69 349 0 408 25 l 486 103 l 486 -179 b 504 -197 486 -189 494 -197 b 524 -179 515 -197 524 -189 l 524 561 b 504 579 524 571 515 579 b 486 561 494 579 486 571 l 486 238 b 286 38 486 129 394 38 l 238 38 b 38 233 129 38 40 125 l 38 561 b 18 579 38 571 29 579 b 0 561 8 579 0 571 z "},"!":{"ha":238,"x_min":0,"x_max":0,"o":"m 47 758 b 28 778 47 769 39 778 b 10 758 18 778 10 769 b 10 179 10 565 10 372 b 28 160 10 168 18 160 b 47 179 39 160 47 168 b 47 758 47 372 47 565 z m 28 56 b 0 28 13 56 0 43 b 28 0 0 13 13 0 b 57 28 43 0 57 13 b 28 56 57 43 43 56 z "},"\"":{"ha":404,"x_min":0,"x_max":0,"o":"m 143 718 b 143 790 143 742 143 765 l 143 810 b 121 843 143 826 140 843 b 100 810 103 843 100 826 l 100 790 b 100 718 100 765 100 742 l 100 697 b 121 665 100 683 101 665 b 143 697 142 665 143 682 z m 43 718 b 43 790 43 742 43 765 l 43 810 b 22 843 43 826 40 843 b 0 810 3 843 0 826 l 0 790 b 0 718 0 765 0 742 l 0 697 b 22 665 0 682 1 665 b 43 697 40 665 43 683 z "},"'":{"ha":293,"x_min":0,"x_max":0,"o":"m 42 718 b 42 790 42 742 42 765 l 42 810 b 21 843 42 826 39 843 b -1 810 1 843 -1 826 l -1 790 b -1 718 -1 765 -1 742 l -1 697 b 21 665 -1 682 0 665 b 42 697 39 665 42 683 z "},"#":{"ha":929,"x_min":0,"x_max":0,"o":"m 221 261 l 410 261 l 274 28 b 271 19 272 25 271 22 b 290 0 271 8 279 0 b 307 10 297 0 303 3 l 451 261 l 758 261 b 778 279 769 261 778 269 b 758 299 778 290 769 299 l 474 299 l 578 479 l 758 479 b 778 499 769 479 778 488 b 758 517 778 508 769 517 l 599 517 l 735 750 b 736 758 736 753 736 756 b 718 778 736 769 728 778 b 618 624 696 778 642 665 l 557 517 l 368 517 l 503 750 b 506 760 504 753 506 756 b 486 778 506 769 496 778 b 388 624 465 778 411 664 l 325 517 l 18 517 b 0 499 8 517 0 508 b 18 479 0 488 8 479 l 304 479 l 200 299 l 18 299 b 0 279 8 299 0 290 b 18 261 0 269 8 261 l 178 261 l 43 28 b 40 19 42 25 40 22 b 60 0 40 8 49 0 b 75 10 65 0 72 3 z m 347 479 l 535 479 l 431 299 l 242 299 z "},"(":{"ha":385,"x_min":0,"x_max":0,"o":"m 183 776 b 54 724 135 776 89 757 l 50 718 b 0 593 18 685 0 640 l 0 -7 b 50 -132 0 -54 18 -99 l 54 -136 b 183 -190 89 -171 135 -190 b 203 -172 194 -190 203 -182 b 183 -154 203 -162 194 -154 b 81 -111 144 -154 108 -137 l 68 -97 b 38 -7 47 -74 39 -39 l 38 593 b 68 683 39 625 47 660 l 81 697 b 183 740 107 726 146 739 b 203 758 194 740 203 749 b 183 776 203 768 194 776 z "},")":{"ha":389,"x_min":0,"x_max":0,"o":"m 19 776 b 0 758 8 776 0 768 b 19 740 0 749 8 740 b 122 697 57 739 96 726 l 135 683 b 165 593 156 660 164 625 l 165 -7 b 135 -97 164 -39 156 -74 l 122 -111 b 19 -154 94 -137 58 -154 b 0 -172 8 -154 0 -162 b 19 -190 0 -182 8 -190 b 149 -136 68 -190 114 -171 l 153 -132 b 203 -7 185 -99 203 -54 l 203 593 b 153 718 203 640 185 685 l 149 724 b 19 776 114 757 68 776 z "},"*":{"ha":460,"x_min":0,"x_max":0,"o":"m 136 489 b 151 474 136 481 143 474 b 168 489 160 474 168 481 l 168 588 l 238 518 b 247 513 240 515 244 513 b 264 528 257 513 264 519 b 260 540 264 532 263 536 l 189 610 l 289 610 b 304 625 297 610 304 617 b 289 640 304 633 297 640 l 189 640 l 260 711 b 264 721 263 714 264 717 b 247 738 264 731 257 738 b 238 733 243 738 240 736 l 168 663 l 168 763 b 151 778 168 771 160 778 b 136 763 143 778 136 771 l 136 663 l 67 733 b 54 738 63 736 58 738 b 40 721 46 738 40 729 b 44 711 40 717 42 714 l 114 640 l 15 640 b 0 625 7 640 0 633 b 15 610 0 617 7 610 l 114 610 l 44 540 b 40 528 42 536 40 532 b 56 513 40 519 47 513 b 67 518 60 513 64 515 l 136 588 z "},",":{"ha":246,"x_min":0,"x_max":0,"o":"m 121 71 b 113 101 128 82 124 94 b 83 93 103 107 89 104 b 6 -40 14 -25 10 -33 b 14 -71 0 -51 3 -65 b 44 -62 24 -76 38 -74 z "},".":{"ha":263,"x_min":0,"x_max":0,"o":"m 38 75 b 0 38 17 75 0 58 b 38 0 0 17 17 0 b 75 38 58 0 75 17 b 38 75 75 58 58 75 z "},"/":{"ha":618,"x_min":0,"x_max":0,"o":"m 36 10 b 464 750 178 256 321 503 b 457 775 468 758 465 771 b 432 768 449 781 436 778 b 4 28 288 522 146 274 b 11 3 -1 19 1 7 b 36 10 19 -3 31 0 z "},":":{"ha":307,"x_min":0,"x_max":0,"o":"m 38 75 b 0 38 17 75 0 58 b 38 0 0 17 17 0 b 75 38 58 0 75 17 b 38 75 75 58 58 75 z m 38 588 b 0 550 17 588 0 571 b 38 513 0 529 17 513 b 75 550 58 513 75 529 b 38 588 75 571 58 588 z "},";":{"ha":322,"x_min":0,"x_max":0,"o":"m 83 588 b 46 550 63 588 46 571 b 83 513 46 529 63 513 b 121 550 104 513 121 529 b 83 588 121 571 104 588 z m 118 71 b 121 82 121 75 121 78 b 99 104 121 93 111 104 b 81 93 92 104 85 100 b 3 -40 11 -25 7 -33 b 0 -51 1 -44 0 -49 b 22 -74 0 -64 8 -74 b 42 -62 29 -74 38 -69 z "},"<":{"ha":726,"x_min":0,"x_max":0,"o":"m 69 494 b 0 390 26 474 0 438 b 69 286 0 344 25 307 l 563 81 b 569 79 564 79 567 79 b 585 96 576 79 585 85 b 575 113 585 103 582 110 l 82 318 b 35 390 54 329 35 357 b 82 463 35 422 54 451 l 575 668 b 585 685 582 671 585 678 b 569 701 585 696 576 701 b 563 700 567 701 564 701 z "},">":{"ha":722,"x_min":0,"x_max":0,"o":"m 69 494 b 0 390 26 474 0 438 b 69 286 0 344 25 307 l 563 81 b 569 79 564 79 567 79 b 585 96 576 79 585 85 b 575 113 585 103 582 110 l 82 318 b 35 390 54 329 35 357 b 82 463 35 422 54 451 l 575 668 b 585 685 582 671 585 678 b 569 701 585 696 576 701 b 563 700 567 701 564 701 z "},"?":{"ha":749,"x_min":0,"x_max":0,"o":"m 529 728 b 403 778 494 760 450 778 l 153 778 b 25 728 106 778 60 760 l 21 722 b -33 593 -14 689 -33 642 l -33 592 b -15 574 -33 582 -25 574 b 4 592 -4 574 4 582 b 47 697 4 632 19 668 l 61 708 b 153 740 86 729 118 740 l 403 740 b 494 708 436 740 468 729 l 507 697 b 551 592 535 668 551 632 b 247 407 551 451 386 425 l 246 407 b 226 318 217 407 226 347 l 226 300 b 226 268 226 289 226 278 l 226 250 b 246 161 226 219 217 161 b 264 179 256 161 264 169 l 264 372 l 279 374 b 589 592 408 392 589 421 b 533 722 589 642 568 688 z m 246 57 b 217 28 231 57 217 43 b 246 0 217 13 231 0 b 274 28 261 0 274 13 b 246 57 274 43 261 57 z "},"[":{"ha":407,"x_min":0,"x_max":0,"o":"m 18 776 b 0 758 8 776 0 768 l 0 -172 b 18 -190 0 -182 8 -190 l 199 -190 b 218 -172 210 -190 218 -182 b 199 -154 218 -162 210 -154 l 38 -154 l 38 740 l 199 740 b 218 758 210 740 218 749 b 199 776 218 768 210 776 z "},"]":{"ha":404,"x_min":0,"x_max":0,"o":"m 19 776 b 0 758 8 776 0 768 b 19 740 0 749 8 740 l 181 740 l 181 -154 l 19 -154 b 0 -172 8 -154 0 -162 b 19 -190 0 -182 8 -190 l 200 -190 b 218 -172 210 -190 218 -182 l 218 758 b 200 776 218 768 210 776 z "},"\\":{"ha":629,"x_min":0,"x_max":0,"o":"m 431 10 b 456 3 436 0 447 -3 b 463 28 465 7 468 19 b 35 768 321 274 179 522 b 10 775 31 778 18 781 b 3 750 1 771 -1 758 b 431 10 146 503 289 256 z "},"^":{"ha":438,"x_min":0,"x_max":0,"o":"m 168 747 l 307 629 b 318 625 310 626 314 625 b 336 643 329 625 336 633 b 331 656 336 647 335 653 l 203 765 b 168 778 193 774 181 778 b 133 765 156 778 143 774 l 6 656 b 0 643 1 653 0 647 b 18 625 0 632 8 625 b 29 629 22 625 26 626 z "},"_":{"ha":918,"x_min":0,"x_max":0,"o":"m 18 0 b 764 0 267 0 515 0 b 782 18 774 0 782 8 b 764 38 782 29 774 38 b 18 38 515 38 267 38 b 0 18 8 38 0 29 b 18 0 0 8 8 0 z "},"`":{"ha":636,"x_min":0,"x_max":0,"o":"m 156 676 b 186 668 163 665 175 661 b 194 697 197 674 200 688 b 117 832 190 706 186 713 b 86 840 111 842 97 846 b 79 810 76 833 72 819 z "},"{":{"ha":507,"x_min":0,"x_max":0,"o":"m 311 776 b 182 724 263 776 217 757 l 178 718 b 128 593 146 685 128 640 l 128 458 b 96 368 128 425 117 393 l 97 367 l 85 354 b -19 311 57 326 18 311 b -37 293 -29 311 -37 303 b -19 275 -37 283 -29 275 b 85 232 19 275 57 260 l 97 219 l 96 218 b 128 128 117 193 128 161 l 128 -7 b 178 -132 128 -54 146 -99 l 182 -136 b 311 -190 217 -171 263 -190 l 313 -190 b 331 -172 322 -190 331 -182 b 311 -154 331 -162 322 -154 b 208 -111 272 -154 235 -139 l 196 -99 l 197 -97 b 165 -7 176 -72 165 -40 l 165 128 b 115 253 165 175 147 219 l 111 258 b 85 279 103 265 94 272 l 65 293 l 85 307 b 111 329 94 314 103 321 l 115 333 b 165 458 147 367 165 411 l 165 593 b 197 683 165 626 176 658 l 196 685 l 208 697 b 311 740 236 725 272 740 b 331 758 322 740 331 749 b 313 776 331 768 322 776 z "},"}":{"ha":533,"x_min":0,"x_max":0,"o":"m 7 776 b -11 758 -3 776 -11 768 b 8 740 -11 749 -3 740 b 111 697 47 740 83 725 l 124 685 l 122 683 b 154 593 143 658 154 626 l 154 458 b 204 333 154 411 172 367 l 208 329 b 235 307 217 321 225 314 l 254 293 l 235 279 b 208 258 225 272 217 265 l 204 253 b 154 128 172 219 154 175 l 154 -7 b 122 -97 154 -40 143 -72 l 124 -99 l 111 -111 b 8 -154 85 -139 47 -154 b -11 -172 -3 -154 -11 -162 b 7 -190 -11 -182 -3 -190 l 8 -190 b 138 -136 57 -190 103 -171 l 142 -132 b 192 -7 174 -99 192 -54 l 192 128 b 224 218 192 161 203 193 l 222 219 l 235 232 b 339 275 263 260 300 275 b 357 293 349 275 357 283 b 339 311 357 303 349 311 b 235 354 301 311 263 326 l 222 367 l 224 368 b 192 458 203 393 192 425 l 192 593 b 142 718 192 640 174 685 l 138 724 b 8 776 103 757 57 776 z "},"|":{"ha":233,"x_min":0,"x_max":0,"o":"m 36 -172 b 36 760 36 138 36 449 b 18 778 36 769 28 778 b 0 760 8 778 0 769 b 0 -172 0 449 0 138 b 18 -190 0 -182 8 -190 b 36 -172 28 -190 36 -182 z "},"~":{"ha":578,"x_min":0,"x_max":0,"o":"m 449 694 b 461 713 457 696 461 704 b 442 732 461 722 454 732 b 358 715 415 732 386 715 b 176 754 294 715 239 754 b 72 718 146 754 72 747 b 92 699 72 707 79 699 b 99 700 93 699 96 699 l 100 700 b 175 715 124 710 150 715 b 357 676 238 715 293 676 b 449 694 388 676 419 682 z "},"‚":{"ha":256,"x_min":0,"x_max":0,"o":"m 121 71 b 113 101 128 82 124 94 b 83 93 103 107 89 104 b 6 -40 14 -25 10 -33 b 14 -71 0 -51 3 -65 b 44 -62 24 -76 38 -74 z "},"„":{"ha":363,"x_min":0,"x_max":0,"o":"m 229 71 b 221 101 236 82 232 94 b 192 93 211 107 197 104 b 114 -40 122 -25 118 -33 b 122 -71 108 -51 111 -65 b 153 -62 132 -76 146 -74 z m 121 71 b 113 101 128 82 124 94 b 83 93 103 107 89 104 b 6 -40 14 -25 10 -33 b 14 -71 0 -51 3 -65 b 44 -62 24 -76 38 -74 z "},"…":{"ha":788,"x_min":0,"x_max":0,"o":"m 38 75 b 0 38 17 75 0 58 b 38 0 0 17 17 0 b 75 38 58 0 75 17 b 38 75 75 58 58 75 z m 235 75 b 197 38 214 75 197 58 b 235 0 197 17 214 0 b 272 38 256 0 272 17 b 235 75 272 58 256 75 z m 432 75 b 394 38 411 75 394 58 b 432 0 394 17 411 0 b 469 38 453 0 469 17 b 432 75 469 58 453 75 z "},"ƒ":{"ha":472,"x_min":0,"x_max":0,"o":"m 226 717 b 297 740 246 732 271 740 b 315 758 307 740 315 747 b 297 776 315 768 307 776 l 294 776 b 190 735 256 776 219 761 l 186 731 b 142 621 157 701 142 663 l 142 324 l 26 324 b 8 304 15 324 8 315 b 26 286 8 294 15 286 l 43 286 l 43 286 l 142 286 l 142 -11 b 107 -96 142 -43 129 -74 l 94 -107 l 93 -107 b 40 -129 78 -118 60 -126 l 40 -131 l 22 -131 b 4 -149 13 -131 4 -139 b 22 -167 4 -158 13 -167 b 129 -125 63 -167 100 -151 l 132 -121 b 178 -11 161 -92 178 -53 l 178 286 l 276 286 l 276 286 l 293 286 b 311 304 303 286 311 294 b 293 324 311 315 303 324 l 178 324 l 178 621 b 213 706 178 653 190 682 l 225 717 z "},"†":{"ha":700,"x_min":0,"x_max":0,"o":"m 299 482 l 542 482 b 560 501 551 482 560 490 b 542 519 560 511 551 519 l 299 519 l 299 760 b 281 778 299 769 290 778 b 261 760 269 778 261 769 l 261 519 l 18 519 b 0 501 8 519 0 511 b 18 482 0 490 8 482 l 261 482 l 261 -172 b 281 -190 261 -182 269 -190 b 299 -172 290 -190 299 -182 z "},"‡":{"ha":718,"x_min":0,"x_max":0,"o":"m 299 67 l 542 67 b 560 86 551 67 560 75 b 542 104 560 96 551 104 l 299 104 l 299 482 l 542 482 b 560 501 551 482 560 490 b 542 519 560 511 551 519 l 299 519 l 299 760 b 281 778 299 769 290 778 b 261 760 269 778 261 769 l 261 519 l 18 519 b 0 501 8 519 0 511 b 18 482 0 490 8 482 l 261 482 l 261 104 l 18 104 b 0 86 8 104 0 96 b 18 67 0 75 8 67 l 261 67 l 261 -172 b 281 -190 261 -182 269 -190 b 299 -172 290 -190 299 -182 z "},"ˆ":{"ha":463,"x_min":0,"x_max":0,"o":"m 171 747 l 310 629 b 335 631 317 622 329 624 b 333 656 342 639 340 650 l 206 765 b 171 778 196 774 183 778 b 136 765 158 778 146 774 l 8 656 b 7 631 1 650 0 639 b 32 629 14 624 25 622 z "},"‹":{"ha":363,"x_min":0,"x_max":0,"o":"m 186 578 b 190 590 189 582 190 586 b 174 607 190 599 183 607 b 160 601 169 607 164 606 l 8 424 b -4 390 1 415 -4 403 b 8 357 -4 378 1 365 l 160 179 b 174 174 164 175 168 174 b 190 190 183 174 190 181 b 186 203 190 194 189 199 l 26 390 z "},"›":{"ha":360,"x_min":0,"x_max":0,"o":"m 160 390 l 0 203 b -4 190 -3 199 -4 194 b 13 174 -4 181 3 174 b 26 179 18 174 22 175 l 178 357 b 190 390 185 365 190 378 b 178 424 190 403 185 415 l 26 601 b 13 607 22 606 17 607 b -4 590 3 607 -4 599 b 0 578 -4 586 -3 582 z "},"‘":{"ha":267,"x_min":0,"x_max":0,"o":"m 82 676 b 113 668 89 665 101 661 b 121 697 124 674 126 688 b 43 832 117 706 113 713 b 13 840 38 842 24 846 b 6 810 3 833 -1 819 z "},"’":{"ha":282,"x_min":0,"x_max":0,"o":"m 121 810 b 114 840 128 819 124 833 b 83 832 103 846 89 842 b 6 697 14 713 10 706 b 14 668 0 688 3 674 b 44 676 25 661 38 665 z "},"“":{"ha":426,"x_min":0,"x_max":0,"o":"m 188 676 b 218 668 194 665 207 661 b 226 697 229 674 232 688 b 149 832 222 706 218 713 b 118 840 143 842 129 846 b 111 810 108 833 104 819 z m 83 676 b 114 668 90 665 103 661 b 122 697 125 674 128 688 b 44 832 118 706 114 713 b 14 840 39 842 25 846 b 7 810 4 833 0 819 z "},"”":{"ha":415,"x_min":0,"x_max":0,"o":"m 121 810 b 114 840 128 819 124 833 b 83 832 103 846 89 842 b 6 697 14 713 10 706 b 14 668 0 688 3 674 b 44 676 25 661 38 665 z m 225 810 b 218 840 232 819 228 833 b 188 832 207 846 193 842 b 110 697 118 713 114 706 b 118 668 104 688 107 674 b 149 676 129 661 142 665 z "},"•":{"ha":496,"x_min":0,"x_max":0,"o":"m 164 596 b 0 428 75 596 0 521 b 164 264 0 339 75 264 b 332 428 257 264 332 339 b 164 596 332 521 257 596 z "},"–":{"ha":629,"x_min":0,"x_max":0,"o":"m 19 293 b 474 293 214 293 279 293 b 493 311 485 293 493 301 b 474 331 493 322 485 331 b 19 331 279 331 214 331 b 0 311 8 331 0 322 b 19 293 0 301 8 293 z "},"—":{"ha":907,"x_min":0,"x_max":0,"o":"m 19 293 b 724 293 214 293 529 293 b 743 311 735 293 743 301 b 724 331 743 322 735 331 b 19 331 529 331 214 331 b 0 311 8 331 0 322 b 19 293 0 301 8 293 z "},"˜":{"ha":578,"x_min":0,"x_max":0,"o":"m 449 694 b 461 713 457 696 461 704 b 442 732 461 722 454 732 b 358 715 415 732 386 715 b 176 754 294 715 239 754 b 72 718 146 754 72 747 b 92 699 72 707 79 699 b 99 700 93 699 96 699 l 100 700 b 175 715 124 710 150 715 b 357 676 238 715 293 676 b 449 694 388 676 419 682 z "},"™":{"ha":886,"x_min":0,"x_max":0,"o":"m 140 742 l 140 435 b 158 417 140 425 149 417 b 175 435 168 417 175 425 l 175 742 l 299 742 b 315 760 308 742 315 750 b 299 776 315 769 308 776 l 17 776 b 0 760 8 776 0 769 b 17 742 0 750 8 742 z m 542 444 l 426 753 b 388 776 419 769 406 776 b 357 746 368 771 360 760 l 313 435 b 329 417 313 426 319 417 b 346 431 338 417 344 422 l 390 751 l 507 440 b 542 417 513 425 525 417 b 575 440 557 417 569 426 l 692 751 l 736 431 b 751 417 738 422 744 417 b 769 432 763 417 769 425 b 769 435 769 433 769 433 l 726 746 b 694 776 724 763 711 772 b 657 753 675 776 663 769 z "},"¡":{"ha":238,"x_min":0,"x_max":0,"o":"m 47 19 b 47 599 47 213 47 406 b 28 618 47 610 39 618 b 10 599 18 618 10 610 b 10 19 10 406 10 213 b 28 0 10 8 18 0 b 47 19 39 0 47 8 z m 28 722 b 57 750 43 722 57 735 b 28 778 57 765 43 778 b 0 750 13 778 0 765 b 28 722 0 735 13 722 z "},"¦":{"ha":229,"x_min":0,"x_max":0,"o":"m 36 383 b 36 758 36 508 36 633 b 18 778 36 769 28 778 b 0 758 8 778 0 769 b 0 383 0 633 0 508 b 18 364 0 372 8 364 b 36 383 28 364 36 372 z m 36 -172 b 36 204 36 -47 36 79 b 18 222 36 214 28 222 b 0 204 8 222 0 214 b 0 -172 0 79 0 -47 b 18 -190 0 -182 8 -190 b 36 -172 28 -190 36 -182 z "},"§":{"ha":844,"x_min":0,"x_max":0,"o":"m 0 53 b 54 -76 0 4 19 -42 l 58 -81 b 185 -131 93 -112 138 -131 l 500 -131 b 625 -81 546 -131 592 -112 l 629 -76 b 683 54 664 -42 683 6 b 588 217 683 124 644 182 l 579 221 l 578 229 b 324 411 564 351 446 392 l 311 413 b 38 592 204 429 38 443 b 81 696 38 631 53 668 l 93 708 l 93 707 b 185 739 119 728 151 739 l 500 739 b 590 707 532 739 564 728 l 592 708 l 603 696 b 646 592 631 668 646 631 b 665 574 646 582 654 574 b 683 592 675 574 683 582 l 683 593 b 629 722 683 642 664 688 l 625 726 b 500 776 592 758 546 776 l 185 776 b 58 726 138 776 93 758 l 54 722 b 0 592 19 688 0 642 b 97 431 0 525 38 461 l 104 426 l 106 417 b 360 236 126 296 231 253 l 372 233 b 646 54 475 221 646 200 b 603 -50 646 15 631 -22 l 592 -62 l 590 -61 b 500 -93 564 -82 532 -93 l 185 -93 b 93 -61 151 -93 119 -82 l 93 -62 l 81 -50 b 38 54 53 -22 38 15 b 18 72 38 64 29 72 b 0 54 8 72 0 64 z m 178 400 b 526 271 290 371 468 383 l 544 236 l 507 246 b 157 375 394 276 211 261 l 140 410 z "},"¨":{"ha":540,"x_min":0,"x_max":0,"o":"m 368 744 b 328 704 346 744 328 726 b 368 664 328 682 346 664 b 408 704 390 664 408 682 b 368 744 408 726 390 744 z m 165 744 b 125 704 143 744 125 726 b 165 664 125 682 143 664 b 206 704 188 664 206 682 b 165 744 206 726 188 744 z "},"©":{"ha":558,"x_min":0,"x_max":0,"o":"m 118 776 b 0 658 51 776 0 724 l 0 478 b 118 360 0 414 53 360 l 299 360 b 417 478 364 360 417 414 l 417 658 b 299 776 417 724 364 776 z m 299 746 b 386 658 346 746 386 706 l 386 478 b 299 392 386 432 346 392 l 118 392 b 31 478 68 392 31 433 l 31 658 b 118 746 31 706 68 746 z m 192 690 b 88 586 135 690 88 643 l 88 551 b 118 478 88 524 99 497 l 118 476 b 192 446 138 457 164 446 l 271 446 b 288 463 281 446 288 454 b 271 478 288 471 281 478 l 192 478 b 119 551 153 478 119 511 l 119 586 b 192 660 119 626 153 660 l 271 660 b 288 675 281 660 288 667 b 271 690 288 683 281 690 z "},"«":{"ha":546,"x_min":0,"x_max":0,"o":"m 186 578 b 185 603 193 586 192 597 b 160 601 178 610 167 608 l 10 424 b -4 390 1 415 -4 403 b 10 357 -4 378 1 365 l 160 179 b 185 178 167 172 178 172 b 186 203 192 183 193 194 l 26 390 z m 360 578 b 358 603 367 586 365 597 b 333 601 351 610 340 608 l 182 424 b 169 390 175 415 169 403 b 182 357 169 378 175 365 l 333 179 b 358 178 340 172 351 172 b 360 203 365 183 367 194 l 200 390 z "},"»":{"ha":542,"x_min":0,"x_max":0,"o":"m 336 390 l 176 203 b 178 178 169 194 171 183 b 203 179 185 172 196 172 l 353 357 b 367 390 361 365 367 378 b 353 424 367 403 361 415 l 203 601 b 178 603 196 608 185 610 b 176 578 171 597 169 586 z m 163 390 l 3 203 b 4 178 -4 194 -3 183 b 29 179 11 172 22 172 l 181 357 b 193 390 188 365 193 378 b 181 424 193 403 188 415 l 29 601 b 4 603 22 608 11 610 b 3 578 -3 597 -4 586 z "},"¿":{"ha":749,"x_min":0,"x_max":0,"o":"m 26 50 b 153 0 61 18 106 0 l 403 0 b 531 50 450 0 496 18 l 535 56 b 589 185 569 89 589 136 l 589 186 b 571 204 589 196 581 204 b 551 186 560 204 551 196 b 508 81 551 146 536 110 l 494 69 b 403 38 469 49 438 38 l 153 38 b 61 69 119 38 88 49 l 49 81 b 4 186 21 110 4 146 b 308 371 4 326 169 353 l 310 371 b 329 460 339 371 329 431 l 329 478 b 329 510 329 489 329 500 l 329 528 b 310 617 329 558 339 617 b 292 599 300 617 292 608 l 292 406 l 276 404 b -33 186 147 386 -33 357 b 22 56 -33 136 -12 90 z m 310 721 b 339 750 325 721 339 735 b 310 778 339 765 325 778 b 282 750 294 778 282 765 b 310 721 282 735 294 721 z "},"¬":{"ha":882,"x_min":0,"x_max":0,"o":"m 722 557 b 703 576 722 568 714 576 l 18 576 b 0 557 8 576 0 568 b 18 539 0 547 8 539 l 685 539 l 685 375 b 703 356 685 364 693 356 b 722 375 714 356 722 364 z "},"­":{"ha":710,"x_min":0,"x_max":0,"o":"m 19 293 b 474 293 214 293 279 293 b 493 311 485 293 493 301 b 474 331 493 322 485 331 b 19 331 279 331 214 331 b 0 311 8 331 0 322 b 19 293 0 301 8 293 z "},"®":{"ha":558,"x_min":0,"x_max":0,"o":"m 118 776 b 0 658 51 776 0 724 l 0 478 b 118 360 0 414 53 360 l 299 360 b 417 478 364 360 417 414 l 417 658 b 299 776 417 724 364 776 z m 299 746 b 386 658 346 746 386 706 l 386 478 b 299 392 386 432 346 392 l 118 392 b 31 478 68 392 31 433 l 31 658 b 118 746 31 706 68 746 z m 114 672 l 113 671 b 100 635 104 660 100 649 l 100 457 l 104 453 b 115 446 104 449 113 446 b 132 463 125 446 132 454 l 132 526 l 213 526 l 292 449 b 299 446 293 447 296 446 b 314 461 307 446 314 453 b 313 469 314 464 314 467 l 256 528 l 269 533 b 317 608 299 549 317 578 b 233 690 317 653 279 690 l 156 690 b 117 675 140 690 126 685 z m 138 651 l 139 653 b 156 660 143 657 150 660 l 233 660 b 285 608 261 660 285 636 b 235 558 285 582 264 558 l 132 558 l 132 635 b 138 651 132 642 133 647 z "},"´":{"ha":599,"x_min":0,"x_max":0,"o":"m 356 810 b 349 840 363 819 358 833 b 318 832 338 846 324 842 b 240 697 249 713 244 706 b 249 668 235 688 238 674 b 279 676 260 661 272 665 z "},"¶":{"ha":800,"x_min":0,"x_max":0,"o":"m 303 -101 l 303 740 l 457 740 l 457 -119 b 475 -137 457 -129 465 -137 b 493 -119 485 -137 493 -129 l 493 740 l 610 740 b 628 760 619 740 628 749 b 610 778 628 769 619 778 l 249 778 b 0 529 115 778 0 667 b 249 281 0 390 115 281 l 265 281 l 265 -119 b 283 -137 265 -129 274 -137 b 303 -119 294 -137 303 -129 z m 249 318 b 36 529 132 318 36 414 b 249 740 36 643 131 740 l 265 740 l 265 318 z "},"·":{"ha":288,"x_min":0,"x_max":0,"o":"m 38 347 b 0 310 17 347 0 331 b 38 272 0 289 17 272 b 75 310 58 272 75 289 b 38 347 75 331 58 347 z "},"¸":{"ha":308,"x_min":0,"x_max":0,"o":"m 15 38 b 0 21 7 38 0 31 b 15 6 0 13 7 6 l 32 4 b 104 -83 74 -6 104 -42 b 32 -169 104 -125 74 -164 l 32 -172 l 15 -172 b 0 -187 7 -172 0 -179 b 15 -203 0 -196 7 -203 l 24 -203 b 136 -83 86 -200 136 -146 b 24 38 136 -21 88 35 z "},"à":{"ha":736,"x_min":0,"x_max":0,"o":"m 124 588 l 106 588 b 88 568 96 588 88 579 b 106 550 88 558 96 550 l 351 550 b 549 396 443 550 526 485 l 554 374 l 197 374 b 10 188 93 374 10 290 b 197 0 10 83 93 0 l 351 0 b 593 240 481 0 593 107 l 593 347 b 351 588 593 481 481 588 z m 281 38 l 197 38 b 47 188 114 38 47 104 b 197 336 47 269 114 336 l 554 336 l 554 240 b 351 38 554 132 464 38 z m 325 676 b 356 668 332 665 344 661 b 364 697 367 674 369 688 b 286 832 360 706 356 713 b 256 840 281 842 267 846 b 249 810 246 833 242 819 z "},"è":{"ha":731,"x_min":0,"x_max":0,"o":"m 31 215 l 554 215 b 588 250 572 215 588 231 l 588 347 b 347 588 588 478 478 588 l 240 588 b 0 347 110 588 0 478 l 0 251 b 240 0 0 118 100 0 l 499 0 b 517 19 508 0 517 8 b 499 38 517 29 508 38 l 240 38 b 56 158 163 38 88 85 z m 550 253 l 38 253 l 38 347 b 240 550 38 458 132 550 l 347 550 b 550 347 457 550 550 457 z m 306 676 b 336 668 313 665 325 661 b 344 697 347 674 350 688 b 267 832 340 706 336 713 b 236 840 261 842 247 846 b 229 810 226 833 222 819 z "},"ì":{"ha":360,"x_min":0,"x_max":0,"o":"m 83 18 b 103 0 83 8 92 0 b 121 18 113 0 121 8 l 121 561 b 103 581 121 572 113 581 b 83 561 92 581 83 572 z m 83 676 b 114 668 90 665 103 661 b 122 697 125 674 128 688 b 44 832 118 706 114 713 b 14 840 39 842 25 846 b 7 810 4 833 0 819 z "},"ò":{"ha":731,"x_min":0,"x_max":0,"o":"m 240 588 b 0 347 110 588 0 478 l 0 240 b 240 0 0 110 110 0 l 347 0 b 588 240 478 0 588 110 l 588 347 b 347 588 588 478 478 588 z m 347 550 b 550 347 456 550 550 458 l 550 240 b 347 38 550 131 457 38 l 240 38 b 38 240 131 38 38 132 l 38 347 b 240 550 38 460 133 550 z m 306 676 b 336 668 313 665 325 661 b 344 697 347 674 350 688 b 267 832 340 706 336 713 b 236 840 261 842 247 846 b 229 810 226 833 222 819 z "},"ù":{"ha":692,"x_min":0,"x_max":0,"o":"m 0 239 l 0 238 b 240 0 3 108 110 0 l 290 0 b 531 238 421 0 528 108 l 531 568 b 511 588 531 579 522 588 b 493 568 501 588 493 579 l 493 240 b 290 38 493 131 400 38 l 240 38 b 38 238 133 38 40 126 l 38 568 b 19 588 38 579 29 588 b 0 568 8 588 0 579 z m 276 676 b 307 668 283 665 296 661 b 315 697 318 674 321 688 b 238 832 311 706 307 713 b 207 840 232 842 218 846 b 200 810 197 833 193 819 z "},"á":{"ha":724,"x_min":0,"x_max":0,"o":"m 111 588 l 93 588 b 75 568 83 588 75 579 b 93 550 75 558 83 550 l 339 550 b 536 396 431 550 514 485 l 542 374 l 185 374 b -3 188 81 374 -3 290 b 185 0 -3 83 81 0 l 339 0 b 581 240 468 0 581 107 l 581 347 b 339 588 581 481 468 588 z m 268 38 l 185 38 b 35 188 101 38 35 104 b 185 336 35 269 101 336 l 542 336 l 542 240 b 339 38 542 132 451 38 z m 351 810 b 344 840 358 819 354 833 b 314 832 333 846 319 842 b 236 697 244 713 240 706 b 244 668 231 688 233 674 b 275 676 256 661 268 665 z "},"é":{"ha":731,"x_min":0,"x_max":0,"o":"m 31 215 l 554 215 b 588 250 572 215 588 231 l 588 347 b 347 588 588 478 478 588 l 240 588 b 0 347 110 588 0 478 l 0 251 b 240 0 0 118 100 0 l 499 0 b 517 19 508 0 517 8 b 499 38 517 29 508 38 l 240 38 b 56 158 163 38 88 85 z m 550 253 l 38 253 l 38 347 b 240 550 38 458 132 550 l 347 550 b 550 347 457 550 550 457 z m 350 810 b 343 840 357 819 353 833 b 313 832 332 846 318 842 b 235 697 243 713 239 706 b 243 668 229 688 232 674 b 274 676 254 661 267 665 z "},"í":{"ha":238,"x_min":0,"x_max":0,"o":"m 3 18 b 22 0 3 8 11 0 b 40 18 32 0 40 8 l 40 561 b 22 581 40 572 32 581 b 3 561 11 581 3 572 z m 124 810 b 117 840 131 819 126 833 b 86 832 106 846 92 842 b 8 697 17 713 13 706 b 17 668 3 688 6 674 b 47 676 28 661 40 665 z "},"ó":{"ha":731,"x_min":0,"x_max":0,"o":"m 240 588 b 0 347 110 588 0 478 l 0 240 b 240 0 0 110 110 0 l 347 0 b 588 240 478 0 588 110 l 588 347 b 347 588 588 478 478 588 z m 347 550 b 550 347 456 550 550 458 l 550 240 b 347 38 550 131 457 38 l 240 38 b 38 240 131 38 38 132 l 38 347 b 240 550 38 460 133 550 z m 344 810 b 338 840 351 819 347 833 b 307 832 326 846 313 842 b 229 697 238 713 233 706 b 238 668 224 688 226 674 b 268 676 249 661 261 665 z "},"ú":{"ha":692,"x_min":0,"x_max":0,"o":"m 0 239 l 0 238 b 240 0 3 108 110 0 l 290 0 b 531 238 421 0 528 108 l 531 568 b 511 588 531 579 522 588 b 493 568 501 588 493 579 l 493 240 b 290 38 493 131 400 38 l 240 38 b 38 238 133 38 40 126 l 38 568 b 19 588 38 579 29 588 b 0 568 8 588 0 579 z m 331 810 b 324 840 338 819 333 833 b 293 832 313 846 299 842 b 215 697 224 713 219 706 b 224 668 210 688 213 674 b 254 676 235 661 247 665 z "},"ý":{"ha":644,"x_min":0,"x_max":0,"o":"m 472 569 l 472 572 l 472 575 l 471 576 l 469 578 l 468 581 l 467 582 l 465 583 l 464 585 l 461 586 l 460 588 l 457 588 l 454 588 l 451 588 l 449 588 l 446 586 l 443 585 l 440 582 l 439 579 l 438 578 l 436 575 l 436 572 l 435 571 l 435 351 b 236 153 435 243 344 153 b 38 351 128 153 38 243 l 38 569 b 18 588 38 579 29 588 b 0 569 8 588 0 579 l 0 351 b 236 115 0 224 108 115 b 403 185 299 115 358 140 l 435 217 l 435 -33 b 236 -232 435 -142 344 -232 l 183 -232 b 165 -251 174 -232 165 -240 b 183 -269 165 -261 174 -269 l 236 -269 b 472 -33 364 -269 472 -161 z m 294 810 b 288 840 301 819 297 833 b 257 832 276 846 263 842 b 179 697 188 713 183 706 b 188 668 174 688 176 674 b 218 676 199 661 211 665 z "},"â":{"ha":724,"x_min":0,"x_max":0,"o":"m 111 588 l 93 588 b 75 568 83 588 75 579 b 93 550 75 558 83 550 l 339 550 b 536 396 431 550 514 485 l 542 374 l 185 374 b -3 188 81 374 -3 290 b 185 0 -3 83 81 0 l 339 0 b 581 240 468 0 581 107 l 581 347 b 339 588 581 481 468 588 z m 268 38 l 185 38 b 35 188 101 38 35 104 b 185 336 35 269 101 336 l 542 336 l 542 240 b 339 38 542 132 451 38 z m 299 747 l 438 629 b 463 631 444 622 457 624 b 461 656 469 639 468 650 l 333 765 b 299 778 324 774 311 778 b 264 765 286 778 274 774 l 136 656 b 135 631 129 650 128 639 b 160 629 142 624 153 622 z "},"ê":{"ha":731,"x_min":0,"x_max":0,"o":"m 40 215 l 564 215 b 597 250 582 215 597 231 l 597 347 b 357 588 597 478 488 588 l 250 588 b 10 347 119 588 10 478 l 10 251 b 250 0 10 118 110 0 l 508 0 b 526 19 518 0 526 8 b 508 38 526 29 518 38 l 250 38 b 65 158 172 38 97 85 z m 560 253 l 47 253 l 47 347 b 250 550 47 458 142 550 l 357 550 b 560 347 467 550 560 457 z m 310 747 l 449 629 b 474 631 456 622 468 624 b 472 656 481 639 479 650 l 344 765 b 310 778 335 774 322 778 b 275 765 297 778 285 774 l 147 656 b 146 631 140 650 139 639 b 171 629 153 624 164 622 z "},"î":{"ha":494,"x_min":0,"x_max":0,"o":"m 153 18 b 172 0 153 8 161 0 b 190 18 182 0 190 8 l 190 561 b 172 581 190 572 182 581 b 153 561 161 581 153 572 z m 174 747 l 313 629 b 338 631 319 622 332 624 b 336 656 344 639 343 650 l 208 765 b 174 778 199 774 186 778 b 139 765 161 778 149 774 l 11 656 b 10 631 4 650 3 639 b 35 629 17 624 28 622 z "},"ô":{"ha":731,"x_min":0,"x_max":0,"o":"m 253 588 b 13 347 122 588 13 478 l 13 240 b 253 0 13 110 122 0 l 360 0 b 600 240 490 0 600 110 l 600 347 b 360 588 600 478 490 588 z m 360 550 b 563 347 468 550 563 458 l 563 240 b 360 38 563 131 469 38 l 253 38 b 50 240 143 38 50 132 l 50 347 b 253 550 50 460 146 550 z m 308 747 l 447 629 b 472 631 454 622 467 624 b 471 656 479 639 478 650 l 343 765 b 308 778 333 774 321 778 b 274 765 296 778 283 774 l 146 656 b 144 631 139 650 138 639 b 169 629 151 624 163 622 z "},"û":{"ha":692,"x_min":0,"x_max":0,"o":"m 36 239 l 36 238 b 276 0 39 108 146 0 l 326 0 b 567 238 457 0 564 108 l 567 568 b 547 588 567 579 558 588 b 529 568 538 588 529 579 l 529 240 b 326 38 529 131 436 38 l 276 38 b 74 238 169 38 76 126 l 74 568 b 56 588 74 579 65 588 b 36 568 44 588 36 579 z m 310 747 l 449 629 b 474 631 456 622 468 624 b 472 656 481 639 479 650 l 344 765 b 310 778 335 774 322 778 b 275 765 297 778 285 774 l 147 656 b 146 631 140 650 139 639 b 171 629 153 624 164 622 z "},"š":{"ha":674,"x_min":0,"x_max":0,"o":"m 551 443 b 553 457 551 449 553 453 b 515 542 553 486 536 519 l 511 546 b 411 588 485 572 449 588 l 185 588 b 42 444 108 588 42 525 b 399 260 42 275 278 283 b 529 143 456 249 529 224 b 425 39 529 86 482 39 l 178 39 b 75 129 129 39 75 79 b 75 144 75 133 75 138 b 56 164 75 156 67 164 b 36 128 38 164 36 142 b 178 0 36 60 106 0 l 425 0 b 568 143 506 0 568 67 b 81 444 568 394 81 233 b 185 549 81 501 128 549 l 411 549 b 485 518 439 549 465 538 l 490 513 b 514 456 503 497 514 474 b 514 443 514 453 514 449 b 532 425 514 433 522 425 b 551 443 543 425 551 433 z m 157 771 b 132 769 150 778 139 776 b 133 744 125 761 126 750 l 261 635 b 296 622 271 626 283 622 b 331 635 308 622 321 626 l 458 744 b 460 769 465 750 467 761 b 435 771 454 776 442 778 l 296 653 z "},"ž":{"ha":674,"x_min":0,"x_max":0,"o":"m 546 481 l 539 464 b 511 432 533 450 524 439 l 100 190 b 50 106 69 172 50 140 b 151 3 50 49 94 3 l 565 3 b 582 19 575 3 582 10 b 565 36 582 29 575 36 l 151 36 b 83 103 117 36 83 64 b 117 161 83 125 96 149 l 528 403 b 571 451 547 414 563 431 l 572 456 b 578 489 576 467 578 478 b 478 590 578 549 529 590 l 79 590 b 63 574 69 590 63 583 b 79 557 63 564 69 557 l 478 557 b 544 492 510 557 544 528 b 543 481 544 488 543 485 z m 164 771 b 139 769 157 778 146 776 b 140 744 132 761 133 750 l 268 635 b 303 622 278 626 290 622 b 338 635 315 622 328 626 l 465 744 b 467 769 472 750 474 761 b 442 771 461 776 449 778 l 303 653 z "},"ã":{"ha":699,"x_min":0,"x_max":0,"o":"m 86 588 l 68 588 b 50 568 58 588 50 579 b 68 550 50 558 58 550 l 314 550 b 511 396 406 550 489 485 l 517 374 l 160 374 b -28 188 56 374 -28 290 b 160 0 -28 83 56 0 l 314 0 b 556 240 443 0 556 107 l 556 347 b 314 588 556 481 443 588 z m 243 38 l 160 38 b 10 188 76 38 10 104 b 160 336 10 269 76 336 l 517 336 l 517 240 b 314 38 517 132 426 38 z m 444 694 b 457 713 453 696 457 704 b 438 732 457 722 450 732 b 354 715 411 732 382 715 b 172 754 290 715 235 754 b 68 718 142 754 68 747 b 88 699 68 707 75 699 b 94 700 89 699 92 699 l 96 700 b 171 715 119 710 146 715 b 353 676 233 715 289 676 b 444 694 383 676 415 682 z "},"õ":{"ha":731,"x_min":0,"x_max":0,"o":"m 240 588 b 0 347 110 588 0 478 l 0 240 b 240 0 0 110 110 0 l 347 0 b 588 240 478 0 588 110 l 588 347 b 347 588 588 478 478 588 z m 347 550 b 550 347 456 550 550 458 l 550 240 b 347 38 550 131 457 38 l 240 38 b 38 240 131 38 38 132 l 38 347 b 240 550 38 460 133 550 z m 472 694 b 485 713 481 696 485 704 b 465 732 485 722 478 732 b 382 715 439 732 410 715 b 200 754 318 715 263 754 b 96 718 169 754 96 747 b 115 699 96 707 103 699 b 122 700 117 699 119 699 l 124 700 b 199 715 147 710 174 715 b 381 676 261 715 317 676 b 472 694 411 676 443 682 z "},"ä":{"ha":699,"x_min":0,"x_max":0,"o":"m 86 588 l 68 588 b 50 568 58 588 50 579 b 68 550 50 558 58 550 l 314 550 b 511 396 406 550 489 485 l 517 374 l 160 374 b -28 188 56 374 -28 290 b 160 0 -28 83 56 0 l 314 0 b 556 240 443 0 556 107 l 556 347 b 314 588 556 481 443 588 z m 243 38 l 160 38 b 10 188 76 38 10 104 b 160 336 10 269 76 336 l 517 336 l 517 240 b 314 38 517 132 426 38 z m 361 744 b 321 704 339 744 321 726 b 361 664 321 682 339 664 b 401 704 383 664 401 682 b 361 744 401 726 383 744 z m 158 744 b 118 704 136 744 118 726 b 158 664 118 682 136 664 b 199 704 181 664 199 682 b 158 744 199 726 181 744 z "},"b":{"ha":710,"x_min":0,"x_max":0,"o":"m 0 238 b 238 0 0 107 107 0 l 342 0 b 579 238 472 0 579 107 l 579 353 b 342 590 579 482 472 590 l 238 590 b 69 521 174 589 113 567 l 38 488 l 38 768 b 18 788 38 779 29 788 b 0 768 8 788 0 779 z m 38 318 l 38 357 b 238 553 38 464 131 553 l 342 553 b 542 353 451 553 542 463 l 542 238 b 342 38 542 128 451 38 l 238 38 b 38 238 128 38 38 128 z "},"c":{"ha":608,"x_min":0,"x_max":0,"o":"m 447 38 l 240 38 b 38 240 131 38 38 131 l 38 347 b 240 550 38 460 133 550 l 465 550 b 483 568 475 550 483 558 b 465 588 483 579 475 588 l 240 588 b 0 347 110 588 0 478 l 0 240 b 240 0 0 110 110 0 l 465 0 b 483 19 475 0 483 8 b 465 38 483 29 475 38 z "},"ë":{"ha":731,"x_min":0,"x_max":0,"o":"m 31 215 l 554 215 b 588 250 572 215 588 231 l 588 347 b 347 588 588 478 478 588 l 240 588 b 0 347 110 588 0 478 l 0 251 b 240 0 0 118 100 0 l 499 0 b 517 19 508 0 517 8 b 499 38 517 29 508 38 l 240 38 b 56 158 163 38 88 85 z m 550 253 l 38 253 l 38 347 b 240 550 38 458 132 550 l 347 550 b 550 347 457 550 550 457 z m 394 744 b 354 704 372 744 354 726 b 394 664 354 682 372 664 b 435 704 417 664 435 682 b 394 744 435 726 417 744 z m 192 744 b 151 704 169 744 151 726 b 192 664 151 682 169 664 b 232 704 214 664 232 682 b 192 744 232 726 214 744 z "},"ï":{"ha":469,"x_min":0,"x_max":0,"o":"m 124 18 b 143 0 124 8 132 0 b 161 18 153 0 161 8 l 161 561 b 143 581 161 572 153 581 b 124 561 132 581 124 572 z m 244 744 b 204 704 222 744 204 726 b 244 664 204 682 222 664 b 285 704 267 664 285 682 b 244 744 285 726 267 744 z m 42 744 b 1 704 19 744 1 726 b 42 664 1 682 19 664 b 82 704 64 664 82 682 b 42 744 82 726 64 744 z "},"ö":{"ha":731,"x_min":0,"x_max":0,"o":"m 240 588 b 0 347 110 588 0 478 l 0 240 b 240 0 0 110 110 0 l 347 0 b 588 240 478 0 588 110 l 588 347 b 347 588 588 478 478 588 z m 347 550 b 550 347 456 550 550 458 l 550 240 b 347 38 550 131 457 38 l 240 38 b 38 240 131 38 38 132 l 38 347 b 240 550 38 460 133 550 z m 392 744 b 351 704 369 744 351 726 b 392 664 351 682 369 664 b 432 704 414 664 432 682 b 392 744 432 726 414 744 z m 189 744 b 149 704 167 744 149 726 b 189 664 149 682 167 664 b 229 704 211 664 229 682 b 189 744 229 726 211 744 z "},"ü":{"ha":692,"x_min":0,"x_max":0,"o":"m 0 239 l 0 238 b 240 0 3 108 110 0 l 290 0 b 531 238 421 0 528 108 l 531 568 b 511 588 531 579 522 588 b 493 568 501 588 493 579 l 493 240 b 290 38 493 131 400 38 l 240 38 b 38 238 133 38 40 126 l 38 568 b 19 588 38 579 29 588 b 0 568 8 588 0 579 z m 381 744 b 340 704 358 744 340 726 b 381 664 340 682 358 664 b 421 704 403 664 421 682 b 381 744 421 726 403 744 z m 178 744 b 138 704 156 744 138 726 b 178 664 138 682 156 664 b 218 704 200 664 218 682 b 178 744 218 726 200 744 z "},"ÿ":{"ha":644,"x_min":0,"x_max":0,"o":"m 472 569 l 472 572 l 472 575 l 471 576 l 469 578 l 468 581 l 467 582 l 465 583 l 464 585 l 461 586 l 460 588 l 457 588 l 454 588 l 451 588 l 449 588 l 446 586 l 443 585 l 440 582 l 439 579 l 438 578 l 436 575 l 436 572 l 435 571 l 435 351 b 236 153 435 243 344 153 b 38 351 128 153 38 243 l 38 569 b 18 588 38 579 29 588 b 0 569 8 588 0 579 l 0 351 b 236 115 0 224 108 115 b 403 185 299 115 358 140 l 435 217 l 435 -33 b 236 -232 435 -142 344 -232 l 183 -232 b 165 -251 174 -232 165 -240 b 183 -269 165 -261 174 -269 l 236 -269 b 472 -33 364 -269 472 -161 z m 339 744 b 299 704 317 744 299 726 b 339 664 299 682 317 664 b 379 704 361 664 379 682 b 339 744 379 726 361 744 z m 136 744 b 96 704 114 744 96 726 b 136 664 96 682 114 664 b 176 704 158 664 176 682 b 136 744 176 726 158 744 z "},"Œ":{"ha":1206,"x_min":0,"x_max":0,"o":"m 326 776 b 0 450 146 776 0 626 l 0 326 b 326 0 0 150 146 0 b 618 178 449 0 558 67 l 633 208 l 649 178 b 939 0 703 68 819 0 l 1028 0 b 1047 18 1039 0 1047 8 b 1028 38 1047 29 1039 38 l 939 38 b 651 293 796 38 669 144 l 651 297 b 653 326 653 307 653 317 l 653 369 l 961 369 b 979 388 971 369 979 378 b 961 407 979 399 971 407 l 653 407 l 653 450 b 651 479 653 460 653 469 l 651 483 b 939 739 669 631 796 739 l 1028 739 b 1047 758 1039 739 1047 747 b 1028 776 1047 768 1039 776 l 939 776 b 649 599 819 776 703 708 l 633 568 l 618 599 b 326 776 558 708 449 776 z m 613 326 b 614 297 613 317 613 307 l 614 293 b 532 122 607 228 578 168 l 531 122 b 326 38 476 67 403 38 b 38 326 168 38 38 168 l 38 450 b 326 739 38 608 168 739 b 531 654 403 739 476 710 l 532 654 b 614 483 578 608 607 549 l 614 479 b 613 450 613 469 613 460 z "},"ç":{"ha":608,"x_min":0,"x_max":0,"o":"m 447 38 l 240 38 b 38 240 131 38 38 131 l 38 347 b 240 550 38 460 133 550 l 465 550 b 483 568 475 550 483 558 b 465 588 483 579 475 588 l 240 588 b 0 347 110 588 0 478 l 0 240 b 240 0 0 110 110 0 l 465 0 b 483 19 475 0 483 8 b 465 38 483 29 475 38 z m 250 38 b 235 21 242 38 235 31 b 250 6 235 13 242 6 l 267 4 b 339 -83 308 -6 339 -42 b 267 -169 339 -125 308 -164 l 267 -172 l 250 -172 b 235 -187 242 -172 235 -179 b 250 -203 235 -196 242 -203 l 258 -203 b 371 -83 321 -200 371 -146 b 258 38 371 -21 322 35 z "},"ß":{"ha":788,"x_min":0,"x_max":0,"o":"m 165 6 l 349 6 b 597 254 486 6 597 119 b 457 476 597 344 542 439 l 435 488 b 504 621 488 540 504 579 b 458 731 504 663 488 701 l 454 735 b 349 776 426 761 388 776 l 156 776 b 50 735 115 776 78 761 l 46 731 b 0 621 17 701 0 663 l 0 -119 b 18 -137 0 -129 8 -137 b 36 -119 29 -137 36 -129 l 36 465 l 351 465 b 560 254 464 463 560 369 b 349 42 560 135 461 42 l 147 42 b 129 24 138 42 129 33 b 147 6 129 14 138 6 z m 85 717 b 156 739 106 732 129 739 l 349 739 b 419 717 372 738 400 733 l 433 704 b 468 621 456 683 468 651 b 350 501 468 554 415 504 l 36 501 l 36 621 b 71 704 38 651 47 683 z "},"Þ":{"ha":767,"x_min":0,"x_max":0,"o":"m 36 628 l 36 879 b 18 897 36 889 28 897 b 0 879 8 897 0 889 l 0 -101 l 0 -119 b 18 -137 0 -129 8 -137 b 36 -119 28 -137 36 -129 l 36 133 l 347 133 b 594 381 479 133 594 242 b 350 628 594 514 485 625 z m 329 590 l 347 590 b 557 381 464 590 557 493 b 347 169 557 264 461 169 l 36 169 l 36 590 z "},"Ø":{"ha":954,"x_min":0,"x_max":0,"o":"m 326 776 b 0 450 147 776 0 626 l 0 326 b 79 114 0 249 28 174 l 89 101 l 56 68 b 50 54 51 64 50 58 b 68 35 50 44 60 35 b 82 42 74 35 78 38 l 117 76 l 129 67 b 326 0 186 24 254 0 l 479 0 b 806 326 654 0 806 146 l 806 450 b 726 663 806 528 778 603 l 715 675 l 750 708 b 756 722 753 713 756 717 b 736 740 756 732 744 740 b 724 735 731 740 726 739 l 689 700 l 676 710 b 479 776 619 753 550 776 z m 768 326 b 479 38 768 168 636 38 l 326 38 b 160 90 265 36 210 57 l 143 101 l 690 649 l 701 635 b 768 450 744 582 768 517 z m 663 675 l 115 128 l 103 142 b 38 326 57 192 39 261 l 38 450 b 326 739 38 608 168 739 l 479 739 b 646 686 539 740 596 719 z "},"Ð":{"ha":899,"x_min":0,"x_max":0,"o":"m 153 731 b 107 619 124 701 107 661 l 107 407 l -10 407 b -28 388 -19 407 -28 399 b -10 369 -28 378 -19 369 l 107 369 l 107 157 b 153 46 107 115 124 75 l 157 42 b 264 0 186 15 224 0 l 457 0 b 783 326 636 0 783 149 l 783 450 b 457 776 783 626 636 776 l 264 776 b 157 735 224 776 186 761 z m 192 715 b 264 739 213 731 238 739 l 457 739 b 661 654 533 739 607 710 l 663 654 b 746 450 717 600 746 526 l 746 326 b 663 122 746 250 717 176 l 661 122 b 457 38 607 67 533 38 l 264 38 b 192 61 238 38 213 46 l 192 60 l 179 72 b 144 157 156 94 144 124 l 144 369 l 260 369 b 278 388 269 369 278 378 b 260 407 278 399 269 407 l 144 407 l 144 619 b 179 704 143 651 156 681 l 192 717 z "},"ñ":{"ha":738,"x_min":0,"x_max":0,"o":"m 588 349 l 588 350 b 347 588 588 478 476 588 l 240 588 b 0 350 110 588 3 479 l 0 19 b 19 0 0 8 8 0 b 38 19 29 0 38 8 l 38 351 b 240 550 40 458 132 550 l 347 550 b 550 347 456 550 550 458 l 550 19 b 568 0 550 8 558 0 b 588 19 579 0 588 8 z m 476 694 b 489 713 485 696 489 704 b 469 732 489 722 482 732 b 386 715 443 732 414 715 b 204 754 322 715 267 754 b 100 718 174 754 100 747 b 119 699 100 707 107 699 b 126 700 121 699 124 699 l 128 700 b 203 715 151 710 178 715 b 385 676 265 715 321 676 b 476 694 415 676 447 682 z "},"å":{"ha":699,"x_min":0,"x_max":0,"o":"m 261 901 b 124 764 183 901 124 836 b 261 626 124 692 182 626 b 399 764 335 626 399 689 b 261 901 399 839 335 901 z m 332 835 b 361 764 351 817 361 790 b 261 664 361 707 315 664 b 160 764 206 664 160 710 b 261 864 160 818 206 864 b 332 835 288 864 313 854 z m 86 588 l 68 588 b 50 568 58 588 50 579 b 68 550 50 558 58 550 l 314 550 b 511 396 406 550 489 485 l 517 374 l 160 374 b -28 188 56 374 -28 290 b 160 0 -28 83 56 0 l 314 0 b 556 240 443 0 556 107 l 556 347 b 314 588 556 481 443 588 z m 243 38 l 160 38 b 10 188 76 38 10 104 b 160 336 10 269 76 336 l 517 336 l 517 240 b 314 38 517 132 426 38 z "},"Ç":{"ha":753,"x_min":0,"x_max":0,"o":"m 326 776 b 0 450 149 776 0 628 l 0 326 b 326 0 0 149 147 0 l 600 0 b 619 18 611 0 619 8 b 600 38 619 29 611 38 l 326 38 b 38 326 168 38 38 168 l 38 450 b 326 739 38 608 168 739 l 600 739 b 619 758 611 739 619 747 b 600 776 619 768 611 776 z m 336 38 b 321 21 328 38 321 31 b 336 6 321 13 328 6 l 353 4 b 425 -83 394 -6 425 -42 b 353 -169 425 -125 394 -164 l 353 -172 l 336 -172 b 321 -187 328 -172 321 -179 b 336 -203 321 -196 328 -203 l 344 -203 b 457 -83 407 -200 457 -146 b 344 38 457 -21 408 35 z "},"Æ":{"ha":1222,"x_min":0,"x_max":0,"o":"m 1043 4 b 1061 22 1053 4 1061 13 b 1043 40 1061 32 1053 40 l 906 40 b 619 318 754 40 622 165 l 619 322 b 621 328 619 324 621 325 l 621 369 l 943 369 b 961 388 953 369 961 378 b 943 407 961 399 953 407 l 621 407 l 621 672 b 613 713 621 686 618 700 l 603 736 l 1043 736 b 1061 754 1053 736 1061 744 b 1043 772 1061 764 1053 772 l 543 772 b 514 776 533 775 524 776 b 428 726 479 776 446 757 l 3 28 b 0 18 0 25 0 21 b 18 0 0 8 8 0 b 35 8 25 0 31 3 l 254 369 l 582 369 l 582 328 b 676 99 582 242 617 160 l 678 99 b 906 4 738 38 819 4 z m 536 736 l 547 733 l 547 732 b 557 725 550 729 554 728 l 560 726 l 569 713 b 582 672 578 701 582 688 l 582 407 l 276 407 l 460 707 b 515 739 472 726 493 739 b 535 736 521 739 528 738 z "},"À":{"ha":910,"x_min":0,"x_max":0,"o":"m 471 756 b 400 776 450 769 425 776 b 333 758 376 776 354 771 l 331 756 b 283 699 308 742 293 722 l 1 24 b 0 17 0 21 0 19 b 17 0 0 7 8 0 b 32 10 24 0 29 3 l 117 213 l 685 213 l 769 10 b 783 0 771 3 776 0 b 800 18 793 0 800 8 b 800 24 800 19 800 22 l 518 699 b 474 754 508 721 493 740 l 472 754 z m 365 736 b 400 743 376 740 389 743 b 453 728 419 743 438 738 l 454 726 b 486 686 469 717 481 701 l 671 246 l 131 246 l 314 686 b 349 728 321 703 333 717 l 365 739 z m 418 871 b 449 863 425 860 438 856 b 457 892 460 868 463 882 b 379 1026 453 900 449 907 b 349 1035 374 1036 360 1040 b 342 1004 339 1028 335 1014 z "},"È":{"ha":753,"x_min":0,"x_max":0,"o":"m 326 776 b 0 450 147 776 0 626 l 0 326 b 326 0 0 149 149 0 l 600 0 b 619 18 611 0 619 8 b 600 38 619 29 611 38 l 326 38 b 38 326 168 38 38 168 l 38 369 l 551 369 b 569 389 561 369 569 378 b 551 407 569 399 561 407 l 38 407 l 38 450 b 326 739 38 608 168 739 l 600 739 b 619 758 611 739 619 747 b 600 776 619 768 611 776 z m 383 871 b 414 863 390 860 403 856 b 422 892 425 868 428 882 b 344 1026 418 900 414 907 b 314 1035 339 1036 325 1040 b 307 1004 304 1028 300 1014 z "},"Ì":{"ha":372,"x_min":0,"x_max":0,"o":"m 118 758 b 99 776 118 768 110 776 b 81 758 89 776 81 768 l 81 18 b 99 0 81 8 89 0 b 118 18 110 0 118 8 z m 85 871 b 115 863 92 860 104 856 b 124 892 126 868 129 882 b 46 1026 119 900 115 907 b 15 1035 40 1036 26 1040 b 8 1004 6 1028 1 1014 z "},"Ò":{"ha":954,"x_min":0,"x_max":0,"o":"m 326 776 b 0 450 149 776 0 628 l 0 326 b 326 0 0 149 147 0 l 479 0 b 806 326 654 0 806 147 l 806 450 b 479 776 806 628 657 776 z m 38 450 b 326 739 38 608 168 739 l 479 739 b 768 450 636 739 768 608 l 768 326 b 479 38 768 168 636 38 l 326 38 b 38 326 168 38 38 168 z m 419 871 b 450 863 426 860 439 856 b 458 892 461 868 464 882 b 381 1026 454 900 450 907 b 350 1035 375 1036 361 1040 b 343 1004 340 1028 336 1014 z "},"Ù":{"ha":854,"x_min":0,"x_max":0,"o":"m 682 740 l 682 326 b 393 38 682 168 550 38 l 326 38 b 38 326 168 38 38 168 l 38 758 b 18 776 38 768 29 776 b 0 758 8 776 0 768 l 0 326 b 326 0 0 149 147 0 l 393 0 b 719 326 571 0 719 149 l 719 758 b 701 776 719 768 711 776 b 682 758 690 776 682 768 z m 376 871 b 407 863 383 860 396 856 b 415 892 418 868 421 882 b 338 1026 411 900 407 907 b 307 1035 332 1036 318 1040 b 300 1004 297 1028 293 1014 z "},"Ý":{"ha":796,"x_min":0,"x_max":0,"o":"m 669 758 b 651 776 669 768 661 776 b 632 758 640 776 632 768 l 632 547 b 343 257 632 390 503 257 l 326 257 b 38 547 167 257 38 390 l 38 758 b 18 776 38 768 29 776 b 0 758 8 776 0 768 l 0 547 b 300 221 0 379 133 236 l 317 219 l 317 18 b 335 0 317 8 325 0 b 353 18 344 0 353 8 l 353 219 l 369 221 b 574 315 447 228 519 261 l 574 317 b 669 547 635 378 669 460 z m 394 1004 b 388 1035 401 1014 397 1028 b 357 1026 376 1040 363 1036 b 279 892 288 907 283 900 b 288 863 274 882 276 868 b 318 871 299 856 311 860 z "},"Á":{"ha":910,"x_min":0,"x_max":0,"o":"m 471 756 b 400 776 450 769 425 776 b 333 758 376 776 354 771 l 331 756 b 283 699 308 742 293 722 l 1 24 b 0 17 0 21 0 19 b 17 0 0 7 8 0 b 32 10 24 0 29 3 l 117 213 l 685 213 l 769 10 b 783 0 771 3 776 0 b 800 18 793 0 800 8 b 800 24 800 19 800 22 l 518 699 b 474 754 508 721 493 740 l 472 754 z m 365 736 b 400 743 376 740 389 743 b 453 728 419 743 438 738 l 454 726 b 486 686 469 717 481 701 l 671 246 l 131 246 l 314 686 b 349 728 321 703 333 717 l 365 739 z m 463 1004 b 456 1035 469 1014 465 1028 b 425 1026 444 1040 431 1036 b 347 892 356 907 351 900 b 356 863 342 882 344 868 b 386 871 367 856 379 860 z "},"É":{"ha":753,"x_min":0,"x_max":0,"o":"m 326 776 b 0 450 147 776 0 626 l 0 326 b 326 0 0 149 149 0 l 600 0 b 619 18 611 0 619 8 b 600 38 619 29 611 38 l 326 38 b 38 326 168 38 38 168 l 38 369 l 551 369 b 569 389 561 369 569 378 b 551 407 569 399 561 407 l 38 407 l 38 450 b 326 739 38 608 168 739 l 600 739 b 619 758 611 739 619 747 b 600 776 619 768 611 776 z m 419 1004 b 413 1035 426 1014 422 1028 b 382 1026 401 1040 388 1036 b 304 892 313 907 308 900 b 313 863 299 882 301 868 b 343 871 324 856 336 860 z "},"Í":{"ha":265,"x_min":0,"x_max":0,"o":"m 42 758 b 22 776 42 768 33 776 b 4 758 13 776 4 768 l 4 18 b 22 0 4 8 13 0 b 42 18 33 0 42 8 z m 121 1004 b 114 1035 128 1014 124 1028 b 83 1026 103 1040 89 1036 b 6 892 14 907 10 900 b 14 863 0 882 3 868 b 44 871 25 856 38 860 z "},"Ó":{"ha":954,"x_min":0,"x_max":0,"o":"m 326 776 b 0 450 149 776 0 628 l 0 326 b 326 0 0 149 147 0 l 479 0 b 806 326 654 0 806 147 l 806 450 b 479 776 806 628 657 776 z m 38 450 b 326 739 38 608 168 739 l 479 739 b 768 450 636 739 768 608 l 768 326 b 479 38 768 168 636 38 l 326 38 b 38 326 168 38 38 168 z m 457 1004 b 450 1035 464 1014 460 1028 b 419 1026 439 1040 425 1036 b 342 892 350 907 346 900 b 350 863 336 882 339 868 b 381 871 361 856 374 860 z "},"Ú":{"ha":854,"x_min":0,"x_max":0,"o":"m 682 740 l 682 326 b 393 38 682 168 550 38 l 326 38 b 38 326 168 38 38 168 l 38 758 b 18 776 38 768 29 776 b 0 758 8 776 0 768 l 0 326 b 326 0 0 149 147 0 l 393 0 b 719 326 571 0 719 149 l 719 758 b 701 776 719 768 711 776 b 682 758 690 776 682 768 z m 425 1004 b 418 1035 432 1014 428 1028 b 388 1026 407 1040 393 1036 b 310 892 318 907 314 900 b 318 863 304 882 307 868 b 349 871 329 856 342 860 z "},"Â":{"ha":910,"x_min":0,"x_max":0,"o":"m 471 756 b 400 776 450 769 425 776 b 333 758 376 776 354 771 l 331 756 b 283 699 308 742 293 722 l 1 24 b 0 17 0 21 0 19 b 17 0 0 7 8 0 b 32 10 24 0 29 3 l 117 213 l 685 213 l 769 10 b 783 0 771 3 776 0 b 800 18 793 0 800 8 b 800 24 800 19 800 22 l 518 699 b 474 754 508 721 493 740 l 472 754 z m 365 736 b 400 743 376 740 389 743 b 453 728 419 743 438 738 l 454 726 b 486 686 469 717 481 701 l 671 246 l 131 246 l 314 686 b 349 728 321 703 333 717 l 365 739 z m 401 969 l 540 851 b 565 853 547 844 560 846 b 564 878 572 861 571 872 l 436 988 b 401 1000 426 996 414 1000 b 367 988 389 1000 376 996 l 239 878 b 238 853 232 872 231 861 b 263 851 244 846 256 844 z "},"Ê":{"ha":753,"x_min":0,"x_max":0,"o":"m 326 776 b 0 450 147 776 0 626 l 0 326 b 326 0 0 149 149 0 l 600 0 b 619 18 611 0 619 8 b 600 38 619 29 611 38 l 326 38 b 38 326 168 38 38 168 l 38 369 l 551 369 b 569 389 561 369 569 378 b 551 407 569 399 561 407 l 38 407 l 38 450 b 326 739 38 608 168 739 l 600 739 b 619 758 611 739 619 747 b 600 776 619 768 611 776 z m 329 969 l 468 851 b 493 853 475 844 488 846 b 492 878 500 861 499 872 l 364 988 b 329 1000 354 996 342 1000 b 294 988 317 1000 304 996 l 167 878 b 165 853 160 872 158 861 b 190 851 172 846 183 844 z "},"Î":{"ha":478,"x_min":0,"x_max":0,"o":"m 188 758 b 168 776 188 768 179 776 b 150 758 158 776 150 768 l 150 18 b 168 0 150 8 158 0 b 188 18 179 0 188 8 z m 171 969 l 310 851 b 335 853 317 844 329 846 b 333 878 342 861 340 872 l 206 988 b 171 1000 196 996 183 1000 b 136 988 158 1000 146 996 l 8 878 b 7 853 1 872 0 861 b 32 851 14 846 25 844 z "},"Ô":{"ha":954,"x_min":0,"x_max":0,"o":"m 326 776 b 0 450 149 776 0 628 l 0 326 b 326 0 0 149 147 0 l 479 0 b 806 326 654 0 806 147 l 806 450 b 479 776 806 628 657 776 z m 38 450 b 326 739 38 608 168 739 l 479 739 b 768 450 636 739 768 608 l 768 326 b 479 38 768 168 636 38 l 326 38 b 38 326 168 38 38 168 z m 404 969 l 543 851 b 568 853 550 844 563 846 b 567 878 575 861 574 872 l 439 988 b 404 1000 429 996 417 1000 b 369 988 392 1000 379 996 l 242 878 b 240 853 235 872 233 861 b 265 851 247 846 258 844 z "},"Û":{"ha":854,"x_min":0,"x_max":0,"o":"m 682 740 l 682 326 b 393 38 682 168 550 38 l 326 38 b 38 326 168 38 38 168 l 38 758 b 18 776 38 768 29 776 b 0 758 8 776 0 768 l 0 326 b 326 0 0 149 147 0 l 393 0 b 719 326 571 0 719 149 l 719 758 b 701 776 719 768 711 776 b 682 758 690 776 682 768 z m 356 969 l 494 851 b 519 853 501 844 514 846 b 518 878 526 861 525 872 l 390 988 b 356 1000 381 996 368 1000 b 321 988 343 1000 331 996 l 193 878 b 192 853 186 872 185 861 b 217 851 199 846 210 844 z "},"Š":{"ha":863,"x_min":0,"x_max":0,"o":"m 697 593 b 643 724 697 642 678 689 l 639 728 b 513 778 604 760 560 778 l 194 778 b 68 728 147 778 103 760 l 64 724 b 10 592 29 688 10 642 b 346 371 10 438 157 394 b 667 186 454 344 667 363 b 519 38 667 104 600 38 l 185 38 b 81 81 146 38 108 53 l 76 86 b 38 186 51 114 38 149 b 18 204 38 196 29 204 b 0 186 8 204 0 196 l 0 179 b 50 60 1 135 19 92 l 54 54 b 185 0 89 19 136 0 l 519 0 b 704 186 619 0 704 83 b 47 592 704 517 47 290 b 90 697 47 632 63 669 l 103 708 b 194 740 129 729 161 740 l 513 740 b 603 708 546 740 578 729 l 617 697 b 660 592 644 669 660 632 b 679 574 660 582 668 574 b 697 592 689 574 697 582 z m 217 993 b 192 992 210 1000 199 999 b 193 967 185 983 186 972 l 321 857 b 356 844 331 849 343 844 b 390 857 368 844 381 849 l 518 967 b 519 992 525 972 526 983 b 494 993 514 999 501 1000 l 356 875 z "},"Ž":{"ha":868,"x_min":0,"x_max":0,"o":"m 575 743 b 669 646 626 743 669 701 b 624 565 671 611 651 582 l 72 240 b 8 129 33 217 8 178 b 138 0 8 58 65 0 l 700 0 b 717 17 710 0 717 7 b 700 33 717 26 710 33 l 138 33 b 42 132 85 33 42 76 b 89 211 42 165 63 194 l 640 536 b 704 647 681 560 704 601 b 575 776 704 718 644 776 l 43 776 b 26 760 33 776 26 769 b 43 743 26 750 33 743 z m 207 993 b 182 992 200 1000 189 999 b 183 967 175 983 176 972 l 311 857 b 346 844 321 849 333 844 b 381 857 358 844 371 849 l 508 967 b 510 992 515 972 517 983 b 485 993 504 999 492 1000 l 346 875 z "},"Ã":{"ha":910,"x_min":0,"x_max":0,"o":"m 471 756 b 400 776 450 769 425 776 b 333 758 376 776 354 771 l 331 756 b 283 699 308 742 293 722 l 1 24 b 0 17 0 21 0 19 b 17 0 0 7 8 0 b 32 10 24 0 29 3 l 117 213 l 685 213 l 769 10 b 783 0 771 3 776 0 b 800 18 793 0 800 8 b 800 24 800 19 800 22 l 518 699 b 474 754 508 721 493 740 l 472 754 z m 365 736 b 400 743 376 740 389 743 b 453 728 419 743 438 738 l 454 726 b 486 686 469 717 481 701 l 671 246 l 131 246 l 314 686 b 349 728 321 703 333 717 l 365 739 z m 582 903 b 594 921 590 904 594 913 b 575 940 594 931 588 940 b 492 924 549 940 519 924 b 310 963 428 924 372 963 b 206 926 279 963 206 956 b 225 907 206 915 213 907 b 232 908 226 907 229 907 l 233 908 b 308 924 257 918 283 924 b 490 885 371 924 426 885 b 582 903 521 885 553 890 z "},"Õ":{"ha":954,"x_min":0,"x_max":0,"o":"m 326 776 b 0 450 149 776 0 628 l 0 326 b 326 0 0 149 147 0 l 479 0 b 806 326 654 0 806 147 l 806 450 b 479 776 806 628 657 776 z m 38 450 b 326 739 38 608 168 739 l 479 739 b 768 450 636 739 768 608 l 768 326 b 479 38 768 168 636 38 l 326 38 b 38 326 168 38 38 168 z m 583 903 b 596 921 592 904 596 913 b 576 940 596 931 589 940 b 493 924 550 940 521 924 b 311 963 429 924 374 963 b 207 926 281 963 207 956 b 226 907 207 915 214 907 b 233 908 228 907 231 907 l 235 908 b 310 924 258 918 285 924 b 492 885 372 924 428 885 b 583 903 522 885 554 890 z "},"Ä":{"ha":910,"x_min":0,"x_max":0,"o":"m 471 756 b 400 776 450 769 425 776 b 333 758 376 776 354 771 l 331 756 b 283 699 308 742 293 722 l 1 24 b 0 17 0 21 0 19 b 17 0 0 7 8 0 b 32 10 24 0 29 3 l 117 213 l 685 213 l 769 10 b 783 0 771 3 776 0 b 800 18 793 0 800 8 b 800 24 800 19 800 22 l 518 699 b 474 754 508 721 493 740 l 472 754 z m 365 736 b 400 743 376 740 389 743 b 453 728 419 743 438 738 l 454 726 b 486 686 469 717 481 701 l 671 246 l 131 246 l 314 686 b 349 728 321 703 333 717 l 365 739 z m 500 953 b 460 913 478 953 460 935 b 500 872 460 890 478 872 b 540 913 522 872 540 890 b 500 953 540 935 522 953 z m 297 953 b 257 913 275 953 257 935 b 297 872 257 890 275 872 b 338 913 319 872 338 890 b 297 953 338 935 319 953 z "},"Ë":{"ha":753,"x_min":0,"x_max":0,"o":"m 326 776 b 0 450 147 776 0 626 l 0 326 b 326 0 0 149 149 0 l 600 0 b 619 18 611 0 619 8 b 600 38 619 29 611 38 l 326 38 b 38 326 168 38 38 168 l 38 369 l 551 369 b 569 389 561 369 569 378 b 551 407 569 399 561 407 l 38 407 l 38 450 b 326 739 38 608 168 739 l 600 739 b 619 758 611 739 619 747 b 600 776 619 768 611 776 z m 451 953 b 411 913 429 953 411 935 b 451 872 411 890 429 872 b 492 913 474 872 492 890 b 451 953 492 935 474 953 z m 249 953 b 208 913 226 953 208 935 b 249 872 208 890 226 872 b 289 913 271 872 289 890 b 249 953 289 935 271 953 z "},"Ö":{"ha":954,"x_min":0,"x_max":0,"o":"m 326 776 b 0 450 149 776 0 628 l 0 326 b 326 0 0 149 147 0 l 479 0 b 806 326 654 0 806 147 l 806 450 b 479 776 806 628 657 776 z m 38 450 b 326 739 38 608 168 739 l 479 739 b 768 450 636 739 768 608 l 768 326 b 479 38 768 168 636 38 l 326 38 b 38 326 168 38 38 168 z m 499 953 b 458 913 476 953 458 935 b 499 872 458 890 476 872 b 539 913 521 872 539 890 b 499 953 539 935 521 953 z m 296 953 b 256 913 274 953 256 935 b 296 872 256 890 274 872 b 336 913 318 872 336 890 b 296 953 336 935 318 953 z "},"Ü":{"ha":854,"x_min":0,"x_max":0,"o":"m 682 740 l 682 326 b 393 38 682 168 550 38 l 326 38 b 38 326 168 38 38 168 l 38 758 b 18 776 38 768 29 776 b 0 758 8 776 0 768 l 0 326 b 326 0 0 149 147 0 l 393 0 b 719 326 571 0 719 149 l 719 758 b 701 776 719 768 711 776 b 682 758 690 776 682 768 z m 457 953 b 417 913 435 953 417 935 b 457 872 417 890 435 872 b 497 913 479 872 497 890 b 457 953 497 935 479 953 z m 254 953 b 214 913 232 953 214 935 b 254 872 214 890 232 872 b 294 913 276 872 294 890 b 254 953 294 935 276 953 z "},"Ÿ":{"ha":796,"x_min":0,"x_max":0,"o":"m 669 758 b 651 776 669 768 661 776 b 632 758 640 776 632 768 l 632 547 b 343 257 632 390 503 257 l 326 257 b 38 547 167 257 38 390 l 38 758 b 18 776 38 768 29 776 b 0 758 8 776 0 768 l 0 547 b 300 221 0 379 133 236 l 317 219 l 317 18 b 335 0 317 8 325 0 b 353 18 344 0 353 8 l 353 219 l 369 221 b 574 315 447 228 519 261 l 574 317 b 669 547 635 378 669 460 z m 436 953 b 396 913 414 953 396 935 b 436 872 396 890 414 872 b 476 913 458 872 476 890 b 436 953 476 935 458 953 z m 233 953 b 193 913 211 953 193 935 b 233 872 193 890 211 872 b 274 913 256 872 274 890 b 233 953 274 935 256 953 z "},"Ï":{"ha":494,"x_min":0,"x_max":0,"o":"m 156 758 b 136 776 156 768 147 776 b 118 758 126 776 118 768 l 118 18 b 136 0 118 8 126 0 b 156 18 147 0 156 8 z m 239 953 b 199 913 217 953 199 935 b 239 872 199 890 217 872 b 279 913 261 872 279 890 b 239 953 279 935 261 953 z m 36 953 b -4 913 14 953 -4 935 b 36 872 -4 890 14 872 b 76 913 58 872 76 890 b 36 953 76 935 58 953 z "},"Ñ":{"ha":910,"x_min":0,"x_max":0,"o":"m 33 713 b 65 743 33 729 47 743 b 88 731 75 743 82 738 l 635 25 b 685 0 644 10 665 0 b 749 64 719 0 749 29 l 749 757 b 732 774 749 767 742 774 b 715 757 722 774 715 767 l 715 64 b 683 33 715 47 701 33 b 661 46 674 33 665 39 l 114 751 b 64 776 104 767 83 776 b 0 713 32 776 0 751 l 0 19 b 17 3 0 10 7 3 b 33 19 26 3 33 10 z m 563 903 b 575 921 571 904 575 913 b 556 940 575 931 568 940 b 472 924 529 940 500 924 b 290 963 408 924 353 963 b 186 926 260 963 186 956 b 206 907 186 915 193 907 b 213 908 207 907 210 907 l 214 908 b 289 924 238 918 264 924 b 471 885 351 924 407 885 b 563 903 501 885 533 890 z "},"ð":{"ha":706,"x_min":0,"x_max":0,"o":"m 250 500 b 0 250 114 500 0 386 b 250 0 0 114 114 0 l 279 0 b 529 250 415 0 529 113 l 529 381 b 414 660 529 486 488 586 l 414 661 b 133 776 339 735 239 776 l 146 776 b 126 758 135 776 126 768 b 146 739 126 747 135 739 l 151 739 b 388 635 240 735 324 697 l 388 633 b 488 440 439 582 475 514 l 496 388 l 457 426 b 283 500 410 474 349 500 z m 279 463 b 493 250 394 463 493 368 b 279 38 493 132 394 38 l 250 38 b 38 250 133 38 38 133 b 250 463 38 367 133 463 l 263 463 z m 360 768 b 353 799 367 778 363 792 b 322 790 342 804 328 800 b 244 656 253 671 249 664 b 253 626 239 646 242 632 b 283 635 264 619 276 624 z "},"Å":{"ha":910,"x_min":0,"x_max":0,"o":"m 396 1021 b 258 883 318 1021 258 956 b 396 746 258 811 317 746 b 533 883 469 746 533 808 b 396 1021 533 958 469 1021 z m 467 954 b 496 883 486 936 496 910 b 396 783 496 826 450 783 b 294 883 340 783 294 829 b 396 983 294 938 340 983 b 467 954 422 983 447 974 z m 471 756 b 400 776 450 769 425 776 b 333 758 376 776 354 771 l 331 756 b 283 699 308 742 293 722 l 1 24 b 0 17 0 21 0 19 b 17 0 0 7 8 0 b 32 10 24 0 29 3 l 117 213 l 685 213 l 769 10 b 783 0 771 3 776 0 b 800 18 793 0 800 8 b 800 24 800 19 800 22 l 518 699 b 474 754 508 721 493 740 l 472 754 z m 365 736 b 400 743 376 740 389 743 b 453 728 419 743 438 738 l 454 726 b 486 686 469 717 481 701 l 671 246 l 131 246 l 314 686 b 349 728 321 703 333 717 l 365 739 z "}}}
